<svg width="112" height="100" viewBox="0 0 112 100" fill="none" xmlns="http://www.w3.org/2000/svg">
<rect y="2.40039" width="46.4" height="11.2" rx="5.6" fill="#8C8C8C"/>
<circle cx="59.1992" cy="8" r="8" fill="#D9D9D9"/>
<circle cx="80" cy="8" r="8" fill="#D9D9D9"/>
<circle cx="100.801" cy="8" r="8" fill="#D9D9D9"/>
<rect y="25.5996" width="32" height="11.2" rx="5.6" fill="#8C8C8C"/>
<rect x="41.5996" y="25.5996" width="46.4" height="11.2" rx="5.6" fill="#0F172A"/>
<circle cx="104" cy="30.4" r="6.4" fill="#D9D9D9"/>
<circle cx="51.2004" cy="32.0002" r="4" fill="white" stroke="#00AFF5" stroke-width="1.6"/>
<circle cx="6.4" cy="51.1998" r="6.4" fill="#D9D9D9"/>
<circle cx="36.8004" cy="51.1998" r="6.4" fill="#D9D9D9"/>
<circle cx="67.2008" cy="51.1998" r="6.4" fill="#D9D9D9"/>
<circle cx="97.5992" cy="51.1998" r="6.4" fill="#D9D9D9"/>
<circle cx="6.4" cy="71.9996" r="6.4" fill="#D9D9D9"/>
<circle cx="38.4" cy="71.9996" r="6.4" fill="#D9D9D9"/>
<circle cx="70.4" cy="71.9996" r="6.4" fill="#D9D9D9"/>
<circle cx="102.4" cy="71.9996" r="6.4" fill="#D9D9D9"/>
<circle cx="6.4" cy="92.8004" r="6.4" fill="#D9D9D9"/>
<circle cx="38.4" cy="92.8004" r="6.4" fill="#D9D9D9"/>
<circle cx="70.4" cy="92.8004" r="6.4" fill="#D9D9D9"/>
</svg>
