<svg width="323" height="314" viewBox="0 0 323 314" fill="none" xmlns="http://www.w3.org/2000/svg">
<path d="M0 39.4812C0 21.1343 19.1048 9.03688 35.6898 16.8819L234.963 111.142C240.636 113.825 245.092 118.544 247.447 124.36L309.082 276.619C315.736 293.055 303.64 311 285.909 311H25C11.1929 311 0 299.807 0 286V39.4812Z" fill="url(#paint0_linear_174_150)" fill-opacity="0.2"/>
<g clip-path="url(#clip0_174_150)">
<path d="M139.221 305.63H26.1332C19.7957 289.075 12.9758 259.704 12.9758 241.788C12.9758 166.813 70.1081 105.115 139.542 105.115C208.977 105.115 266.109 166.813 266.109 241.788C266.109 264.034 261.08 285.951 251.453 305.63H139.221Z" fill="#FCF3E4"/>
<path d="M258.478 305.6C258.478 306.683 258.068 307.663 257.418 308.373C256.76 309.083 255.854 309.521 254.852 309.521H24.2108C22.2079 309.521 20.5852 307.766 20.5852 305.608C20.5852 304.525 20.9945 303.545 21.6451 302.843C22.303 302.133 23.2094 301.694 24.2108 301.694H254.852C256.855 301.687 258.478 303.442 258.478 305.6Z" fill="#FFB747"/>
<path d="M82.1324 137.303C82.1324 137.303 92.2344 122.913 77.8782 114.384C63.5221 105.854 53.4347 116.512 53.4347 116.512C53.4347 116.512 38.0187 120.243 42.8065 136.235C42.8065 136.235 31.6447 149.563 37.4924 157.552C43.3401 165.54 56.0955 161.283 56.0955 161.283H66.7237C66.7237 161.283 78.4191 169.278 86.394 160.214C94.3688 151.151 82.1324 137.303 82.1324 137.303Z" fill="#2E2A27"/>
<path d="M57.8403 163.254H67.0066V151.154H57.8403V163.254Z" fill="#FFCFB8"/>
<path d="M57.8352 159C57.8352 159 62.3087 162.797 67.0015 159H57.8352Z" fill="#F0AC69"/>
<path d="M66.9868 160.602C66.9868 160.602 68.1563 163.236 62.4182 163.236C56.6217 163.236 57.8497 160.602 57.8497 160.602L38.0552 167.413C38.0552 167.413 41.615 185.526 43.552 213.017C45.204 236.565 45.4087 240.918 45.4087 240.918L90.5239 240.947C90.5239 240.947 83.3458 202.819 82.5271 183.126C82.1251 173.492 83.6601 164.83 83.6601 164.83L66.9868 160.602Z" fill="white"/>
<path d="M50.2623 211.488L44.4219 202.892L40.248 173.375L42.8576 204.341L50.2623 211.488Z" fill="#E3E3E3"/>
<path d="M83.6309 164.845L94.8293 176.513L111.313 161.882L115.815 166.74C115.179 168.064 107.526 195.658 99.851 195.145C92.1686 194.633 77.637 178.583 77.637 178.583C77.637 178.583 73.0539 171.122 75.9412 167.259C78.8212 163.397 83.6309 164.845 83.6309 164.845Z" fill="white"/>
<path d="M73.7117 162.307L77.9586 181.546H81.5915L77.2276 163.228L73.7117 162.307Z" fill="#0C1C2E"/>
<path d="M54.6702 161.619L54.6848 181.546H50.6426L51.5051 162.826L54.6702 161.619Z" fill="#0C1C2E"/>
<path d="M35.4531 301.972H94.4639C94.4639 301.972 91.7667 247.882 90.0416 237.348C88.3165 226.814 87.125 219.264 88.3165 212.849C89.508 206.433 82.0522 181.531 82.0522 181.531L50.1455 181.561C50.1455 181.561 47.7626 207.194 41.0669 214.239C41.0669 214.239 41.7102 216.243 42.0976 217.947C42.2584 218.672 42.3754 219.345 42.3754 219.784C42.3754 219.915 42.3315 220.449 42.2584 221.313C41.4982 230.215 35.4531 301.972 35.4531 301.972Z" fill="#86D2A6"/>
<path d="M80.21 197.991H55.8323V217.494C55.8323 217.494 66.9503 225.124 80.8386 217.494L80.21 197.991Z" fill="#0C1C2E"/>
<path d="M79.1866 198.949H56.9141V216.77C56.9141 216.77 67.0672 223.741 79.764 216.77L79.1866 198.949Z" fill="#86D2A6"/>
<path d="M42.3825 219.784C42.3825 219.915 42.3386 220.449 42.2655 221.313C42.2655 221.313 46.0739 220.106 47.9013 215.914C47.9013 215.914 44.2903 219.308 42.1047 217.94C42.2655 218.672 42.3825 219.345 42.3825 219.784Z" fill="#182636"/>
<path d="M53.3543 187.479C54.2949 187.479 55.0574 186.713 55.0574 185.767C55.0574 184.822 54.2949 184.055 53.3543 184.055C52.4137 184.055 51.6511 184.822 51.6511 185.767C51.6511 186.713 52.4137 187.479 53.3543 187.479Z" fill="#1F2D3D"/>
<path d="M88.0678 214.473C88.0678 214.473 84.5811 214.422 83.375 213.317C83.375 213.317 85.6702 217.355 87.8412 217.962L88.0678 214.473Z" fill="#60A87F"/>
<path d="M69.5817 252.505C69.5817 252.505 69.6329 262.484 61.6946 266.192C61.7019 266.192 72.1328 266.719 69.5817 252.505Z" fill="#60A87F"/>
<path d="M71.3141 257.663C71.3141 257.663 71.3653 267.641 63.427 271.35C63.427 271.35 73.8579 271.884 71.3141 257.663Z" fill="#60A87F"/>
<path d="M53.3543 187.047C54.2949 187.047 55.0574 186.281 55.0574 185.336C55.0574 184.39 54.2949 183.624 53.3543 183.624C52.4137 183.624 51.6511 184.39 51.6511 185.336C51.6511 186.281 52.4137 187.047 53.3543 187.047Z" fill="#51749E"/>
<path d="M54.0561 185.76C54.2862 185.76 54.4727 185.57 54.4727 185.335C54.4727 185.101 54.2862 184.911 54.0561 184.911C53.8259 184.911 53.6394 185.101 53.6394 185.335C53.6394 185.57 53.8259 185.76 54.0561 185.76Z" fill="#345780"/>
<path d="M52.6598 185.76C52.8899 185.76 53.0765 185.57 53.0765 185.335C53.0765 185.101 52.8899 184.911 52.6598 184.911C52.4297 184.911 52.2432 185.101 52.2432 185.335C52.2432 185.57 52.4297 185.76 52.6598 185.76Z" fill="#345780"/>
<path d="M80.1807 187.237C81.1213 187.237 81.8838 186.471 81.8838 185.526C81.8838 184.58 81.1213 183.814 80.1807 183.814C79.2401 183.814 78.4775 184.58 78.4775 185.526C78.4775 186.471 79.2401 187.237 80.1807 187.237Z" fill="#1F2D3D"/>
<path d="M80.1807 186.806C81.1213 186.806 81.8838 186.039 81.8838 185.094C81.8838 184.149 81.1213 183.382 80.1807 183.382C79.2401 183.382 78.4775 184.149 78.4775 185.094C78.4775 186.039 79.2401 186.806 80.1807 186.806Z" fill="#51749E"/>
<path d="M80.8825 185.518C81.1126 185.518 81.2991 185.328 81.2991 185.094C81.2991 184.86 81.1126 184.67 80.8825 184.67C80.6524 184.67 80.4658 184.86 80.4658 185.094C80.4658 185.328 80.6524 185.518 80.8825 185.518Z" fill="#345780"/>
<path d="M79.4792 185.518C79.7093 185.518 79.8958 185.328 79.8958 185.094C79.8958 184.86 79.7093 184.67 79.4792 184.67C79.249 184.67 79.0625 184.86 79.0625 185.094C79.0625 185.328 79.249 185.518 79.4792 185.518Z" fill="#345780"/>
<path d="M126.721 150.895L123.622 148.166L37.0684 247.231L40.175 249.952L126.721 150.895Z" fill="#B9BDC6"/>
<path d="M43.1061 250.179L36.9076 244.729L20.2196 263.83C18.7211 265.549 18.8893 268.16 20.607 269.66C22.3175 271.167 24.927 270.991 26.4255 269.272L43.1061 250.179Z" fill="#D70C05"/>
<path d="M138.863 145.064L127.343 134.947L122.95 142.182C121.356 144.808 121.875 148.195 124.178 150.222C126.48 152.248 129.908 152.314 132.291 150.383L138.863 145.064Z" fill="#D70C05"/>
<path d="M185.615 122.54L185.805 122.709L143.519 145.686C142.05 146.484 140.237 146.279 138.98 145.174L127.657 135.225C126.4 134.121 125.961 132.35 126.561 130.785L143.716 85.7366L143.943 82.7958C143.943 82.7958 149.813 83.242 153.307 85.5244C156.793 87.8068 165.156 94.3687 168.978 95.3709C172.801 96.3731 178.613 108.546 181.215 110.046C183.817 111.545 189.46 121.216 189.46 121.216L185.615 122.54Z" fill="#FFD368"/>
<path d="M132.569 126.235L149.323 82.8543L146.282 80.9596L132.569 126.235Z" fill="#F6BB38"/>
<path d="M136.209 130.177L157.963 86.5119L154.915 84.6246L136.209 130.177Z" fill="#F6BB38"/>
<path d="M139.367 133.733L172.516 97.6386L169.468 95.7513L139.367 133.733Z" fill="#F6BB38"/>
<path d="M142.357 134.794L184.636 110.645L181.595 108.758L142.357 134.794Z" fill="#F6BB38"/>
<path d="M146.399 139.124L189.299 118.758L186.251 116.864L146.399 139.124Z" fill="#F6BB38"/>
<path d="M52.4334 215.08C52.4334 215.08 62.0675 215.709 61.9506 217.231C61.8336 218.752 57.1847 219.045 57.1847 219.045C57.1847 219.045 68.3831 221.861 67.5059 223.449C66.2706 225.673 61.6582 223.507 61.6582 223.507C61.6582 223.507 67.9153 227.143 67.2135 228.84C66.5118 230.537 59.7869 225.673 59.7869 225.673C59.7869 225.673 64.4943 229.016 63.5879 230.303C62.4769 231.883 57.5063 227.896 57.5063 227.896C57.5063 227.896 60.5252 230.757 59.3776 232.176C58.0911 233.756 47.6895 223.997 47.6895 223.997L52.4334 215.08Z" fill="#FFCFB8"/>
<path d="M38.0261 167.537C38.0261 167.537 22.1495 198.898 24.5544 203.236C26.9593 207.582 47.6675 223.99 47.6675 223.99L53.9027 214.816C53.9027 214.816 38.0334 197.903 38.0261 197.933C38.0042 197.991 52.4188 173.038 50.0578 169.951C45.4162 163.909 38.0261 167.537 38.0261 167.537Z" fill="white"/>
<path d="M118.3 154.121C118.3 154.121 118.001 150.192 124.075 152.914C127.174 154.304 125.471 156.82 123.651 157.376C123.651 157.376 124.806 160.361 121.297 160.573C121.297 160.573 122.408 163.47 119.368 164.15C119.368 164.15 118.622 168.035 111.685 167.918L113.798 165.218C113.798 165.218 110.655 162.863 111.51 161.546C112.372 160.236 113.527 160.602 113.527 160.602C113.527 160.602 112.175 158.371 115.289 157.581C115.296 157.581 114.478 153.989 118.3 154.121Z" fill="#FFCFB8"/>
<path d="M121.758 156.498C121.838 156.52 121.933 156.491 121.977 156.418C122.028 156.33 121.999 156.213 121.911 156.162L118.249 153.974C118.162 153.923 118.045 153.952 117.993 154.04C117.942 154.128 117.972 154.245 118.059 154.296L121.721 156.484C121.729 156.491 121.743 156.498 121.758 156.498Z" fill="#E8AB8E"/>
<path d="M119.273 159.915C119.36 159.944 119.448 159.907 119.492 159.827C119.543 159.739 119.507 159.622 119.412 159.571L115.45 157.449C115.355 157.398 115.245 157.435 115.194 157.522C115.143 157.61 115.179 157.727 115.274 157.778L119.236 159.9C119.243 159.907 119.258 159.915 119.273 159.915Z" fill="#E8AB8E"/>
<path d="M117.211 162.738C117.299 162.767 117.394 162.724 117.438 162.643C117.482 162.548 117.445 162.438 117.35 162.394L113.323 160.383C113.228 160.339 113.118 160.375 113.074 160.463C113.03 160.558 113.067 160.668 113.162 160.712L117.189 162.724C117.197 162.731 117.204 162.731 117.211 162.738Z" fill="#E8AB8E"/>
<path d="M78.4118 138.905C78.4118 138.905 81.5989 139.973 81.0726 144.238C80.539 148.503 76.292 147.969 76.292 147.969C76.292 147.969 73.105 160.229 61.9432 159.695C50.7814 159.161 46.5272 149.037 46.5272 149.037C46.5272 149.037 41.213 147.435 41.7466 141.575C42.2802 135.715 46.0009 138.912 46.0009 138.912C46.0009 138.912 51.315 124.523 62.4768 126.117C73.6386 127.712 78.4118 138.905 78.4118 138.905Z" fill="#FFCFB8"/>
<path d="M58.2154 127.178C58.2154 127.178 66.7238 139.439 78.4119 138.905C78.4119 138.905 76.8184 119.716 61.936 120.251C47.0535 120.785 45.9863 138.905 45.9863 138.905C45.9863 138.905 53.9612 138.905 58.2154 127.178Z" fill="#2E2A27"/>
<path d="M237.367 169.805C236.234 168.049 231.198 169.3 226.125 172.592L226.096 172.607C225.358 173.082 224.385 172.556 224.385 171.678C224.385 170.58 223.523 169.666 222.426 169.6C196.251 168.071 169.929 168.108 143.753 169.717C142.656 169.783 141.801 170.697 141.801 171.802V172.577C141.801 173.572 140.595 174.07 139.908 173.36C139.791 173.236 139.667 173.119 139.55 172.994C135.266 168.722 130.603 166.454 129.126 167.939C127.649 169.417 129.93 174.084 134.214 178.357C138.497 182.629 144.988 182.899 145.046 182.556L224.4 181.861C226.169 181.261 228.201 180.273 230.233 178.949C235.313 175.643 238.508 171.553 237.367 169.805Z" fill="#FDBB40"/>
<path d="M236.322 178.241H129.66V195.689H236.322V178.241Z" fill="#E0A639"/>
<path d="M236.52 199.857L236.3 203.99L231.578 293.567L231.374 297.51L231.169 301.394H135.493L135.274 297.51L135.054 293.567L130.084 204.143L129.857 200.01L232.324 199.864L236.52 199.857Z" fill="#FDBB40"/>
<path d="M246.249 186.528L246.271 199.842L236.176 199.857L235.957 203.99L129.74 204.143L129.514 200.01L120.106 200.025L120.084 186.711L246.249 186.528Z" fill="#E0A639"/>
<path d="M246.074 182.828H119.909V200.275H246.074V182.828Z" fill="#FDBB40"/>
<path d="M204.028 277.056L195.264 264.583L206.872 256.551C206.872 256.551 216.272 264.649 214.466 273.018C214.247 274.042 213.626 274.986 212.69 275.454C211.988 275.805 208.217 276.514 204.028 277.056Z" fill="white"/>
<path d="M197.318 295.161L189.453 286.229L194.533 275.373L195.213 278.263L203.772 277.809C203.772 277.809 211.542 277.114 213.326 276.061L207.325 288.885C206.645 290.333 205.329 291.365 203.765 291.694C202.369 291.987 200 292.213 197.208 292.126L197.318 295.161Z" fill="white"/>
<path d="M163.884 278.095L179.11 278.621L178.503 292.725C178.503 292.725 166.376 295.337 160.799 288.856C160.119 288.065 159.732 286.997 159.929 285.966C160.075 285.205 161.793 281.767 163.884 278.095Z" fill="white"/>
<path d="M153.504 261.818L165.367 260.925L170.952 271.525L168.24 270.326L163.438 277.429C163.438 277.429 159.3 284.049 159.066 286.112L152.473 273.588C151.728 272.176 151.698 270.494 152.378 269.053C152.992 267.758 154.235 265.732 155.989 263.559L153.504 261.818Z" fill="white"/>
<path d="M182.538 242.044L175.44 255.534L163.006 248.855C163.006 248.855 165.93 236.792 174.183 234.583C175.192 234.312 176.317 234.429 177.158 235.051C177.794 235.512 180.14 238.555 182.538 242.044Z" fill="white"/>
<path d="M201.696 239.769L197.34 250.845L185.374 251.269L187.633 249.352L183.327 241.927C183.327 241.927 179.168 235.322 177.414 234.21L191.551 233.712C193.144 233.654 194.672 234.356 195.673 235.6C196.572 236.711 197.852 238.716 199.05 241.24L201.696 239.769Z" fill="white"/>
<path d="M236.52 199.857L236.3 203.99L231.578 293.567L231.374 297.51L231.169 301.401H194.613C195.542 300.121 196.448 298.826 197.325 297.51C198.195 296.215 199.043 294.898 199.862 293.567C200.169 293.069 200.476 292.572 200.775 292.074C203.648 287.305 206.243 282.337 208.597 277.231C208.736 276.924 208.882 276.61 209.021 276.302C210.629 272.754 212.12 269.148 213.494 265.497C221.191 245.139 225.497 223.463 228.004 204.004C228.187 202.614 228.355 201.239 228.515 199.871L232.316 199.864L236.52 199.857Z" fill="#FDBB40"/>
</g>
<defs>
<linearGradient id="paint0_linear_174_150" x1="161.5" y1="0" x2="161.5" y2="311" gradientUnits="userSpaceOnUse">
<stop offset="0.596154" stop-color="#2291C2"/>
<stop offset="0.673077" stop-color="#2DBEFF"/>
<stop offset="0.673077" stop-color="#2291C2"/>
<stop offset="1" stop-color="#1B7299"/>
</linearGradient>
<clipPath id="clip0_174_150">
<rect width="258" height="241" fill="white" transform="translate(8 73)"/>
</clipPath>
</defs>
</svg>
