<svg id="visual" viewBox="0 0 960 540" width="960" height="540" xmlns="http://www.w3.org/2000/svg" xmlns:xlink="http://www.w3.org/1999/xlink" version="1.1"><path d="M0 66L87 50L175 44L262 66L349 50L436 44L524 66L611 87L698 33L785 44L873 60L960 66L960 0L873 0L785 0L698 0L611 0L524 0L436 0L349 0L262 0L175 0L87 0L0 0Z" fill="#ffffff"></path><path d="M0 249L87 239L175 249L262 152L349 244L436 179L524 266L611 249L698 217L785 206L873 303L960 239L960 64L873 58L785 42L698 31L611 85L524 64L436 42L349 48L262 64L175 42L87 48L0 64Z" fill="#98d6ff"></path><path d="M0 357L87 303L175 298L262 255L349 309L436 287L524 309L611 330L698 293L785 303L873 374L960 314L960 237L873 301L785 204L698 215L611 247L524 264L436 177L349 242L262 150L175 247L87 237L0 247Z" fill="#2dbeff"></path><path d="M0 433L87 406L175 428L262 460L349 401L436 476L524 422L611 428L698 433L785 476L873 465L960 455L960 312L873 372L785 301L698 291L611 328L524 307L436 285L349 307L262 253L175 296L87 301L0 355Z" fill="#98d6ff"></path><path d="M0 541L87 541L175 541L262 541L349 541L436 541L524 541L611 541L698 541L785 541L873 541L960 541L960 453L873 463L785 474L698 431L611 426L524 420L436 474L349 399L262 458L175 426L87 404L0 431Z" fill="#ffffff"></path></svg>