<svg width="40" height="40" viewBox="0 0 40 40" fill="none" xmlns="http://www.w3.org/2000/svg">
<rect x="0.5" y="0.5" width="39" height="39" rx="3.5" fill="#F0FDF4"/>
<rect x="0.5" y="0.5" width="39" height="39" rx="3.5" stroke="#22C55E"/>
<g clip-path="url(#clip0_1476_17397)">
<path d="M20.0333 16.9775C20.3086 16.9775 20.5315 16.7545 20.5315 16.4793C20.5315 16.2042 20.3086 15.9811 20.0333 15.9811C17.8322 15.9811 16.0479 17.7655 16.0479 19.9667C16.0479 22.1678 17.8322 23.9522 20.0333 23.9522C22.2345 23.9522 24.0189 22.1678 24.0189 19.9667C24.0189 19.6915 23.7958 19.4685 23.5207 19.4685C23.2456 19.4685 23.0225 19.6915 23.0225 19.9667C23.0225 21.6176 21.6843 22.9559 20.0333 22.9559C18.3825 22.9559 17.0441 21.6176 17.0441 19.9667C17.0441 18.3157 18.3825 16.9775 20.0333 16.9775Z" fill="#22C55E"/>
<path d="M29.539 17.0076C29.4525 16.7462 29.1705 16.6045 28.9089 16.691C28.6535 16.7755 28.5113 17.0474 28.5875 17.3054C30.0773 22.0499 27.4391 27.1037 22.6947 28.5936C17.9504 30.0834 12.8965 27.4452 11.4067 22.7008C9.91667 17.9564 12.5551 12.9025 17.2993 11.4127C19.0555 10.8612 20.9385 10.8612 22.6947 11.4127C22.9583 11.4921 23.2365 11.3429 23.316 11.0793C23.3943 10.8195 23.2507 10.545 22.9927 10.4611C17.7246 8.80829 12.1139 11.7391 10.4611 17.0073C8.80828 22.2754 11.7392 27.886 17.0073 29.5388C22.2755 31.1917 27.886 28.2609 29.5388 22.9927C30.1501 21.0445 30.1501 18.9558 29.539 17.0076H29.539Z" fill="#22C55E"/>
<path d="M20.982 13.5593C20.9846 13.2756 20.7667 13.0385 20.4838 13.0173C20.335 13.0046 20.1861 12.992 20.0334 12.992C16.1813 12.992 13.0586 16.1147 13.0586 19.9667C13.0586 23.8187 16.1813 26.9414 20.0334 26.9414C23.8853 26.9414 27.008 23.8187 27.008 19.9668C27.008 19.7865 26.997 19.6065 26.9749 19.4277C26.9351 19.1542 26.6812 18.9648 26.4077 19.0047C26.1343 19.0443 25.9449 19.2984 25.9846 19.5719C25.9861 19.5822 25.988 19.5924 25.9901 19.6028C26.0009 19.7235 26.0116 19.8431 26.0116 19.9665C26.0118 23.2683 23.3352 25.9448 20.0335 25.9451C16.7317 25.9453 14.0551 23.2686 14.055 19.9669C14.0548 16.6652 16.7312 13.9885 20.0331 13.9884H20.0332C20.1568 13.9884 20.2766 13.999 20.397 14.0097L20.4904 14.0175C20.7507 14.0286 20.9707 13.8266 20.9817 13.5663C20.9819 13.5638 20.9819 13.5616 20.982 13.5593Z" fill="#22C55E"/>
<path d="M23.0225 14.4865V16.273L19.6811 19.6144C19.4832 19.8056 19.4778 20.121 19.6689 20.3189C19.8601 20.5168 20.1756 20.5223 20.3734 20.3311C20.3776 20.3271 20.3817 20.323 20.3857 20.3189L23.7271 16.9775H25.5135C25.6457 16.9775 25.7723 16.925 25.8658 16.8315L28.8549 13.8423C29.0494 13.6478 29.0494 13.3324 28.8549 13.1378C28.8087 13.0916 28.7538 13.0549 28.6933 13.0299C28.6329 13.0048 28.5681 12.9919 28.5027 12.992H27.0081V11.4973C27.0081 11.2222 26.7851 10.9991 26.5098 10.9993C26.3777 10.9993 26.2511 11.0518 26.1578 11.1452L23.1685 14.1344C23.1222 14.1806 23.0855 14.2355 23.0605 14.2959C23.0354 14.3563 23.0225 14.4211 23.0225 14.4865ZM24.0189 14.6929L26.0117 12.7V13.4902C26.0117 13.7653 26.2348 13.9884 26.5099 13.9884H27.3L25.3072 15.9811H24.0189V14.6929Z" fill="#22C55E"/>
</g>
<defs>
<clipPath id="clip0_1476_17397">
<rect width="20" height="20" fill="white" transform="translate(10 10)"/>
</clipPath>
</defs>
</svg>
