<?xml version="1.0" standalone="no"?>
<svg xmlns:xlink="http://www.w3.org/1999/xlink" id="wave" style="transform:rotate(180deg); transition: 0.3s" viewBox="0 0 1440 320" version="1.1" xmlns="http://www.w3.org/2000/svg"><defs><linearGradient id="sw-gradient-0" x1="0" x2="0" y1="1" y2="0"><stop stop-color="rgba(40, 168, 225, 0)" offset="0%"/><stop stop-color="rgba(40, 168, 225, 0.59)" offset="100%"/></linearGradient></defs><path style="transform:translate(0, 0px); opacity:1" fill="url(#sw-gradient-0)" d="M0,128L160,224L320,32L480,160L640,96L800,256L960,288L1120,192L1280,192L1440,0L1600,192L1760,288L1920,160L2080,128L2240,256L2400,192L2560,32L2720,256L2880,32L3040,0L3200,0L3360,160L3520,128L3680,96L3840,64L3840,320L3680,320L3520,320L3360,320L3200,320L3040,320L2880,320L2720,320L2560,320L2400,320L2240,320L2080,320L1920,320L1760,320L1600,320L1440,320L1280,320L1120,320L960,320L800,320L640,320L480,320L320,320L160,320L0,320Z"/></svg>