<svg width="40" height="40" viewBox="0 0 40 40" fill="none" xmlns="http://www.w3.org/2000/svg">
<rect x="0.5" y="0.5" width="39" height="39" rx="3.5" fill="#F0FDFA"/>
<rect x="0.5" y="0.5" width="39" height="39" rx="3.5" stroke="#14B8A6"/>
<path d="M28.15 21.5604L27.6314 21.4504L24.2324 15.7964L24.3576 15.2988L29.1292 12.4552L29.5 13.0774L25.0408 15.735L28.052 20.744L28.9922 20.0848L29.4082 20.6778L28.15 21.5604ZM11.85 21.5604L10.592 20.678L11.008 20.085L11.948 20.7442L14.9594 15.735L10.5 13.0774L10.8708 12.4552L15.6424 15.2988L15.7676 15.7964L12.3686 21.4504L11.85 21.5604Z" fill="#14B8A6"/>
<path d="M25.3672 24.021C25.1673 24.0208 24.9707 23.9706 24.7952 23.875L21.863 22.285L22.2082 21.6482L25.1416 23.2386C25.3362 23.3444 25.587 23.2954 25.726 23.1306C25.868 22.9626 25.8754 22.713 25.743 22.538C25.7217 22.511 25.6977 22.4862 25.6716 22.4638L23.1692 20.3504L20.654 18.7896C20.5627 18.7334 20.4604 18.6972 20.3541 18.6834C20.2477 18.6696 20.1396 18.6785 20.037 18.7096L19.2436 18.9504L18.389 19.8888C18.1638 20.1355 17.8706 20.31 17.5464 20.3904C17.2221 20.4708 16.8814 20.4535 16.567 20.3406C16.4274 20.2908 16.3003 20.211 16.1948 20.1069C16.0893 20.0027 16.0079 19.8768 15.9562 19.7378C15.9039 19.5984 15.8828 19.4493 15.8944 19.3009C15.9059 19.1525 15.9498 19.0084 16.023 18.8788L17.2562 16.6908L17.4608 16.5232C18.661 16.1356 19.8732 15.8898 21.1672 15.772L21.2912 15.7822L24 16.4886L24.938 16.1366L25.192 16.815L24.147 17.207L23.9284 17.2184L21.17 16.4992C20.0022 16.6098 18.9034 16.8296 17.818 17.1698L16.654 19.2344C16.6326 19.2721 16.6198 19.314 16.6164 19.3573C16.6131 19.4005 16.6194 19.4439 16.6348 19.4844C16.6528 19.5322 16.6994 19.6184 16.8114 19.6584C17.1764 19.79 17.5966 19.6832 17.853 19.4012L18.775 18.3888L18.9376 18.2862L19.8276 18.0156C20.0287 17.9552 20.2403 17.938 20.4485 17.9652C20.6567 17.9924 20.8568 18.0635 21.0356 18.1736L23.616 19.7796L26.138 21.9096C26.1996 21.9612 26.258 22.022 26.3154 22.0942C26.661 22.551 26.644 23.1668 26.279 23.5986C26.1669 23.7312 26.0272 23.8376 25.8697 23.9106C25.7122 23.9836 25.5408 24.0212 25.3672 24.021Z" fill="#14B8A6"/>
<path d="M26.2456 22.612L25.8182 22.027C26.3972 21.6052 26.9149 21.1051 27.3566 20.5412L27.9274 20.9876C27.4444 21.6041 26.8785 22.1507 26.2456 22.612ZM24.2044 25.3508C24.0104 25.3508 23.816 25.301 23.642 25.2072L20.8576 23.7072L21.2014 23.0694L23.986 24.5694C24.1786 24.674 24.4138 24.6254 24.5528 24.466C24.6342 24.372 24.6734 24.2508 24.6624 24.1256C24.6573 24.0641 24.6397 24.0044 24.6107 23.9499C24.5818 23.8955 24.5421 23.8474 24.494 23.8088L24.1108 23.4966L24.5684 22.935L24.9508 23.2466C25.0744 23.3461 25.1765 23.4697 25.251 23.6098C25.3254 23.7499 25.3707 23.9037 25.384 24.0618C25.3986 24.22 25.3809 24.3795 25.332 24.5306C25.2832 24.6818 25.2042 24.8215 25.0998 24.9412C24.9885 25.0695 24.851 25.1725 24.6965 25.2431C24.5421 25.3138 24.3743 25.3505 24.2044 25.3508Z" fill="#14B8A6"/>
<path d="M23.0936 26.5694C22.9313 26.5689 22.771 26.5335 22.6236 26.4658L19.9352 25.217L20.2404 24.56L22.9272 25.808C23.0838 25.8794 23.2736 25.8396 23.3842 25.7174C23.4532 25.6426 23.4904 25.5438 23.4878 25.442C23.4852 25.3402 23.4431 25.2435 23.3704 25.1722L23.132 24.936L23.6418 24.4214L23.8794 24.6568C24.086 24.8591 24.2057 25.1338 24.2133 25.4229C24.2209 25.7119 24.1157 25.9926 23.92 26.2054C23.8151 26.3202 23.6874 26.4118 23.5452 26.4745C23.4029 26.5372 23.2491 26.5695 23.0936 26.5694Z" fill="#14B8A6"/>
<path d="M21.497 27.4674C21.3612 27.4675 21.2262 27.4459 21.0972 27.4034C20.4054 27.1792 19.6486 26.889 18.7842 26.5174L19.0702 25.8518C19.9142 26.2148 20.6504 26.4968 21.3216 26.7146C21.5704 26.796 21.8404 26.6946 21.9804 26.4686L22.0284 26.3936C22.0948 26.2862 22.1225 26.1593 22.1072 26.034L22.8268 25.9512C22.8599 26.2406 22.7944 26.5327 22.6408 26.7802L22.5936 26.8542C22.4783 27.0414 22.317 27.196 22.125 27.3034C21.9331 27.4107 21.7169 27.4672 21.497 27.4674ZM17.3878 17.3944C16.2568 17.116 15.374 16.7208 14.9486 16.5102L15.27 15.8608C15.669 16.0586 16.4972 16.429 17.5608 16.6908L17.3878 17.3944ZM13.1048 22.6856C12.698 22.2344 12.2602 21.574 11.9644 21.0994L12.5792 20.716C12.8086 21.0844 13.2522 21.767 13.6428 22.2008L13.1048 22.6856Z" fill="#14B8A6"/>
<path d="M13.8106 24.4072C13.4112 24.4072 13.0266 24.2026 12.8262 23.842L12.8126 23.8146C12.6788 23.5688 12.6538 23.2514 12.75 22.956C12.8386 22.6922 12.964 22.4422 13.1224 22.2134C13.286 21.9708 13.498 21.7302 13.7504 21.5012C13.9714 21.3003 14.2619 21.1933 14.5604 21.2028C14.7168 21.2076 14.8706 21.2445 15.0121 21.3113C15.1537 21.378 15.28 21.4732 15.3832 21.5908C15.511 21.7389 15.5988 21.9172 15.6384 22.1087C15.6779 22.3003 15.6679 22.4988 15.6092 22.6854L14.9186 22.4658C14.94 22.3978 14.9437 22.3255 14.9294 22.2557C14.915 22.1858 14.8831 22.1208 14.8366 22.0668C14.7993 22.0241 14.7536 21.9896 14.7022 21.9655C14.6509 21.9414 14.5951 21.9282 14.5384 21.9268C14.4278 21.928 14.3198 21.9628 14.2368 22.038C14.0278 22.2276 13.854 22.424 13.7208 22.6214C13.6007 22.7943 13.5055 22.9833 13.4382 23.1828C13.4042 23.286 13.4108 23.3984 13.4556 23.4814L13.4654 23.5006C13.5748 23.6974 13.8382 23.7258 14.0156 23.6322L14.352 24.2738C14.185 24.3615 13.9992 24.4073 13.8106 24.4072ZM17.7838 27.5448C17.7492 27.5448 17.7144 27.5434 17.6798 27.5402C17.3176 27.5078 17.0054 27.3134 16.8236 27.007L16.8264 27.005L16.8062 26.978C16.6676 26.7414 16.6332 26.425 16.7204 26.1248C16.7914 25.8848 16.897 25.6508 17.0346 25.4278L17.6512 25.8082C17.5472 25.9768 17.468 26.1518 17.4156 26.3286C17.384 26.4372 17.3928 26.5468 17.4398 26.6274L17.4392 26.6278L17.4466 26.637C17.531 26.7794 17.6694 26.8118 17.7444 26.8186C17.8141 26.8251 17.8844 26.8149 17.9494 26.7889C18.0144 26.763 18.0724 26.7219 18.1184 26.6692C18.3206 26.4372 18.4878 26.1934 18.6246 25.9854C18.6904 25.8854 18.7562 25.7824 18.8224 25.6794C18.9242 25.5198 18.9064 25.312 18.778 25.1746C18.6222 25.0046 18.342 25.0018 18.178 25.1616C18.1542 25.1836 18.14 25.198 18.1258 25.2134L17.5912 24.7246C17.6202 24.6926 17.6492 24.6636 17.6808 24.6346C17.8937 24.4292 18.1784 24.3151 18.4742 24.3164C18.7918 24.3164 19.0962 24.45 19.3098 24.6826C19.6614 25.0598 19.7128 25.631 19.4326 26.0696C19.365 26.1752 19.2976 26.2802 19.2302 26.383C19.0794 26.6122 18.8946 26.881 18.6648 27.1446C18.5551 27.2704 18.4197 27.3712 18.2677 27.4402C18.1157 27.5092 17.9507 27.5449 17.7838 27.5448Z" fill="#14B8A6"/>
<path d="M14.79 25.526C14.7064 25.526 14.6236 25.5178 14.5428 25.5014C14.1876 25.4286 13.9088 25.1974 13.7776 24.867L13.7792 24.8664L13.7726 24.8494L13.7706 24.8502C13.6312 24.4898 13.6694 24.079 13.8706 23.7788C14.2042 23.2802 14.5974 22.8084 14.9778 22.3522C15.0686 22.2432 15.1592 22.1348 15.2486 22.0262C15.3568 21.8939 15.491 21.7852 15.6428 21.7066C15.7946 21.6281 15.9609 21.5815 16.1314 21.5696C16.4696 21.5432 16.7994 21.6518 17.0348 21.864C17.0912 21.915 17.1396 21.9686 17.1824 22.028C17.5078 22.4766 17.4558 23.1494 17.0556 23.6636C16.6896 24.1332 16.3244 24.602 15.8884 25.042L15.888 25.0422C15.5804 25.352 15.177 25.526 14.79 25.526ZM14.447 24.5914L14.4506 24.5994C14.4926 24.7046 14.5702 24.7674 14.6882 24.7914C14.9044 24.836 15.1732 24.7338 15.3742 24.5316C15.7798 24.1226 16.1156 23.6912 16.4714 23.2348C16.684 22.9614 16.731 22.6394 16.5954 22.4528C16.582 22.4343 16.5666 22.4174 16.5496 22.4022C16.463 22.324 16.323 22.281 16.1848 22.2922C16.1119 22.2968 16.0408 22.3165 15.9759 22.35C15.911 22.3835 15.8538 22.4301 15.8078 22.4868C15.717 22.5969 15.6258 22.7067 15.5344 22.8162C15.1658 23.258 14.785 23.7148 14.4724 24.1816C14.392 24.3018 14.4014 24.4726 14.4462 24.5886L14.447 24.5914Z" fill="#14B8A6"/>
<path d="M16.125 26.805C16.047 26.805 15.9694 26.7976 15.893 26.7834C15.5274 26.7136 15.2348 26.4822 15.09 26.1484L15.0832 26.1316L15.0826 26.1318C14.9582 25.8376 14.9706 25.4762 15.117 25.1404C15.3834 24.523 15.822 23.9568 16.4578 23.4108C16.9738 22.9678 17.7022 22.9408 18.1524 23.3464C18.208 23.3964 18.2556 23.4486 18.298 23.5056C18.63 23.9486 18.6006 24.6 18.2252 25.0884L18.2122 25.1052C17.8878 25.5266 17.5522 25.9626 17.1458 26.3692L17.1454 26.3698C16.8664 26.6484 16.4914 26.805 16.125 26.805ZM15.7502 25.8506L15.7546 25.8602C15.817 26.0034 15.9382 26.0542 16.029 26.0716C16.2306 26.1098 16.4622 26.028 16.6336 25.8572C17.0068 25.4832 17.3136 25.085 17.6382 24.6632L17.651 24.6468C17.8288 24.4152 17.856 24.124 17.7172 23.9388C17.7025 23.919 17.6857 23.9007 17.6672 23.8844C17.4868 23.7216 17.1698 23.7544 16.93 23.9604C16.3794 24.433 16.004 24.9134 15.782 25.4284C15.7148 25.5824 15.703 25.7392 15.75 25.85L15.7502 25.8506Z" fill="#14B8A6"/>
</svg>
