<svg width="40" height="40" viewBox="0 0 40 40" fill="none" xmlns="http://www.w3.org/2000/svg">
<rect x="0.5" y="0.5" width="39" height="39" rx="3.5" fill="#FEFCE8"/>
<rect x="0.5" y="0.5" width="39" height="39" rx="3.5" stroke="#5EAC24"/>
<path fill-rule="evenodd" clip-rule="evenodd" d="M16.3315 22.2443L13.9821 24.5939C13.9597 24.6162 13.9332 24.634 13.904 24.646C13.8748 24.6581 13.8435 24.6643 13.8119 24.6642C13.7482 24.664 13.6871 24.6388 13.6418 24.5939L12.3829 23.335C12.3378 23.2899 12.3124 23.2287 12.3125 23.1649C12.3125 23.1011 12.3378 23.0399 12.383 22.9948C12.4281 22.9498 12.4893 22.9244 12.5531 22.9244C12.6168 22.9245 12.678 22.9498 12.7231 22.9949L13.8118 24.0839L15.9912 21.9043C16.0136 21.882 16.0401 21.8642 16.0693 21.8521C16.0984 21.84 16.1297 21.8338 16.1613 21.8338C16.1929 21.8338 16.2241 21.84 16.2533 21.8521C16.2825 21.8642 16.309 21.8819 16.3314 21.9042C16.3537 21.9265 16.3714 21.9531 16.3835 21.9822C16.3956 22.0114 16.4018 22.0427 16.4019 22.0743C16.4019 22.1058 16.3956 22.1371 16.3836 22.1663C16.3715 22.1955 16.3538 22.222 16.3314 22.2443H16.3315ZM27.7898 22.4591C27.7898 22.5228 27.7646 22.5839 27.7196 22.6289C27.6746 22.674 27.6135 22.6994 27.5498 22.6995H22.1325C22.0688 22.6995 22.0076 22.6742 21.9625 22.6291C21.9174 22.584 21.8921 22.5228 21.8921 22.4591C21.8921 22.3953 21.9174 22.3342 21.9625 22.2891C22.0076 22.244 22.0688 22.2187 22.1325 22.2187H27.5497C27.6134 22.2188 27.6744 22.2441 27.7195 22.2892C27.7645 22.3343 27.7897 22.3954 27.7897 22.4591H27.7898ZM29.0771 24.5876C29.2629 24.5874 29.4409 24.5135 29.5724 24.3822C29.7038 24.2509 29.7779 24.0729 29.7783 23.8871V16.9792H11.4416V19.4378L14.069 18.2421C14.1001 18.2279 14.134 18.2205 14.1682 18.2205C14.2024 18.2205 14.2363 18.2279 14.2674 18.2421L18.4542 20.1472C18.496 20.1664 18.5314 20.1973 18.5562 20.236C18.581 20.2748 18.5942 20.3199 18.5941 20.3659C18.5941 22.0128 18.5034 23.387 18.0989 24.5876H29.0771ZM14.1692 28.1435C17.4959 26.3676 18.097 24.3309 18.1122 20.5205L14.1692 18.7253L10.2243 20.5205C10.2395 24.3309 10.8405 26.3676 14.1692 28.1435ZM29.7784 14.9616V16.4984H11.4416V14.9616H29.7784ZM12.1429 11.8256H29.0771C29.2629 11.8259 29.4409 11.8998 29.5724 12.031C29.7038 12.1623 29.7778 12.3403 29.7783 12.5261V14.481H11.4416V12.5259C11.4419 12.3401 11.5159 12.162 11.6473 12.0307C11.7788 11.8993 11.957 11.8256 12.1429 11.8256ZM29.0771 11.3447H12.1429C11.8297 11.345 11.5293 11.4695 11.3078 11.691C11.0864 11.9124 10.9618 12.2127 10.9615 12.5259V19.6565L9.8822 20.1472C9.84037 20.1664 9.80494 20.1972 9.78012 20.236C9.75531 20.2748 9.74214 20.3199 9.74219 20.3659C9.74219 22.2705 9.86332 23.8108 10.4512 25.1394C11.0806 26.5636 12.2279 27.6722 14.0575 28.6283C14.0916 28.6463 14.1296 28.6557 14.1681 28.6557C14.2067 28.6557 14.2447 28.6463 14.2787 28.6283C16.1084 27.6722 17.2558 26.5636 17.8851 25.1394C17.8965 25.1157 17.9059 25.0921 17.9154 25.0685H29.0771C29.3903 25.0683 29.6907 24.9437 29.9122 24.7222C30.1337 24.5007 30.2583 24.2004 30.2585 23.8871V12.5259C30.2582 12.2127 30.1336 11.9124 29.9121 11.6909C29.6906 11.4695 29.3903 11.345 29.0771 11.3447Z" fill="#5EAC24"/>
</svg>
