<svg width="40" height="40" viewBox="0 0 40 40" fill="none" xmlns="http://www.w3.org/2000/svg">
<rect x="0.5" y="0.5" width="39" height="39" rx="3.5" fill="#FEF2F2"/>
<rect x="0.5" y="0.5" width="39" height="39" rx="3.5" stroke="#EF4444"/>
<g clip-path="url(#clip0_2118_18741)">
<path fill-rule="evenodd" clip-rule="evenodd" d="M22.9263 25.2991L24.1046 26.4775C24.1827 26.5556 24.2887 26.5995 24.3992 26.5995C24.5097 26.5995 24.6156 26.5556 24.6938 26.4775L27.0504 24.1208C27.1263 24.0422 27.1683 23.937 27.1674 23.8277C27.1664 23.7185 27.1226 23.614 27.0454 23.5367C26.9681 23.4595 26.8636 23.4156 26.7544 23.4147C26.6451 23.4138 26.5399 23.4557 26.4613 23.5316L24.3992 25.5937L23.5154 24.71C23.4369 24.6341 23.3316 24.5921 23.2224 24.593C23.1131 24.594 23.0086 24.6378 22.9313 24.7151C22.8541 24.7923 22.8103 24.8968 22.8093 25.0061C22.8084 25.1153 22.8504 25.2206 22.9263 25.2991ZM15.4167 18C15.4167 17.7571 15.32 17.5237 15.1484 17.3516C14.9763 17.1799 14.7431 17.0835 14.5 17.0833H13.8334C13.5904 17.0833 13.3571 17.18 13.185 17.3516C13.0133 17.5237 12.9168 17.7569 12.9167 18V18.6666C12.9167 18.9096 13.0134 19.1429 13.185 19.315C13.3571 19.4866 13.5904 19.5833 13.8334 19.5833H14.5C14.7429 19.5833 14.9763 19.4866 15.1484 19.315C15.32 19.1429 15.4167 18.9096 15.4167 18.6666V18ZM14.5834 18V18.6666C14.5834 18.6776 14.5812 18.6884 14.577 18.6985C14.5728 18.7086 14.5666 18.7177 14.5588 18.7254C14.5511 18.7332 14.542 18.7394 14.5319 18.7436C14.5218 18.7478 14.511 18.75 14.5 18.75H13.8334C13.8224 18.75 13.8116 18.7478 13.8015 18.7436C13.7914 18.7394 13.7823 18.7332 13.7746 18.7254C13.7668 18.7177 13.7606 18.7086 13.7564 18.6985C13.7522 18.6884 13.75 18.6776 13.75 18.6666V18C13.75 17.9779 13.7588 17.9566 13.7746 17.9412C13.7823 17.9334 13.7914 17.9272 13.8015 17.923C13.8116 17.9188 13.8224 17.9166 13.8334 17.9166H14.5C14.5221 17.9166 14.5434 17.9254 14.5588 17.9412C14.5666 17.9489 14.5728 17.958 14.577 17.9681C14.5812 17.9782 14.5834 17.989 14.5834 18ZM15.4167 21.3333C15.4167 21.0904 15.32 20.8571 15.1484 20.685C14.9763 20.5133 14.7431 20.4168 14.5 20.4166H13.8334C13.5904 20.4166 13.3571 20.5133 13.185 20.685C13.0133 20.8571 12.9168 21.0902 12.9167 21.3333V22C12.9167 22.2429 13.0134 22.4762 13.185 22.6483C13.3571 22.82 13.5904 22.9166 13.8334 22.9166H14.5C14.7429 22.9166 14.9763 22.82 15.1484 22.6483C15.32 22.4762 15.4167 22.2429 15.4167 22V21.3333ZM14.5834 21.3333V22C14.5834 22.0109 14.5812 22.0217 14.577 22.0318C14.5728 22.0419 14.5666 22.0511 14.5588 22.0587C14.5511 22.0665 14.542 22.0727 14.5319 22.077C14.5218 22.0812 14.511 22.0833 14.5 22.0833H13.8334C13.8224 22.0833 13.8116 22.0812 13.8015 22.077C13.7914 22.0727 13.7823 22.0665 13.7746 22.0587C13.7668 22.0511 13.7606 22.0419 13.7564 22.0318C13.7522 22.0217 13.75 22.0109 13.75 22V21.3333C13.75 21.3112 13.7588 21.29 13.7746 21.2746C13.7823 21.2668 13.7914 21.2606 13.8015 21.2563C13.8116 21.2521 13.8224 21.25 13.8334 21.25H14.5C14.5221 21.25 14.5434 21.2587 14.5588 21.2746C14.5666 21.2822 14.5728 21.2914 14.577 21.3015C14.5812 21.3115 14.5834 21.3224 14.5834 21.3333ZM15.4167 24.6666C15.4167 24.4237 15.32 24.1904 15.1484 24.0183C14.9763 23.8466 14.7431 23.7501 14.5 23.75H13.8334C13.5904 23.75 13.3571 23.8466 13.185 24.0183C13.0133 24.1904 12.9168 24.4235 12.9167 24.6666V25.3333C12.9167 25.5762 13.0134 25.8096 13.185 25.9816C13.3571 26.1533 13.5904 26.25 13.8334 26.25H14.5C14.7429 26.25 14.9763 26.1533 15.1484 25.9816C15.32 25.8096 15.4167 25.5762 15.4167 25.3333V24.6666ZM14.5834 24.6666V25.3333C14.5834 25.3442 14.5812 25.3551 14.577 25.3652C14.5728 25.3753 14.5666 25.3844 14.5588 25.3921C14.5511 25.3999 14.542 25.4061 14.5319 25.4103C14.5218 25.4145 14.511 25.4167 14.5 25.4166H13.8334C13.8224 25.4167 13.8116 25.4145 13.8015 25.4103C13.7914 25.4061 13.7823 25.3999 13.7746 25.3921C13.7668 25.3844 13.7606 25.3753 13.7564 25.3652C13.7522 25.3551 13.75 25.3442 13.75 25.3333V24.6666C13.75 24.6446 13.7588 24.6233 13.7746 24.6079C13.7823 24.6001 13.7914 24.5939 13.8015 24.5897C13.8116 24.5855 13.8224 24.5833 13.8334 24.5833H14.5C14.5221 24.5833 14.5434 24.5921 14.5588 24.6079C14.5666 24.6156 14.5728 24.6247 14.577 24.6348C14.5812 24.6449 14.5834 24.6557 14.5834 24.6666ZM18.75 18C18.75 17.7571 18.6534 17.5237 18.4817 17.3516C18.3096 17.1799 18.0765 17.0835 17.8334 17.0833H17.1667C16.9238 17.0833 16.6904 17.18 16.5184 17.3516C16.3467 17.5237 16.2502 17.7569 16.25 18V18.6666C16.25 18.9096 16.3467 19.1429 16.5184 19.315C16.6904 19.4866 16.9238 19.5833 17.1667 19.5833H17.8334C18.0763 19.5833 18.3096 19.4866 18.4817 19.315C18.6534 19.1429 18.75 18.9096 18.75 18.6666V18ZM17.9167 18V18.6666C17.9167 18.6776 17.9145 18.6884 17.9103 18.6985C17.9061 18.7086 17.8999 18.7177 17.8921 18.7254C17.8844 18.7332 17.8753 18.7394 17.8652 18.7436C17.8551 18.7478 17.8443 18.75 17.8334 18.75H17.1667C17.1558 18.75 17.1449 18.7478 17.1348 18.7436C17.1247 18.7394 17.1156 18.7332 17.1079 18.7254C17.1001 18.7177 17.0939 18.7086 17.0897 18.6985C17.0855 18.6884 17.0833 18.6776 17.0834 18.6666V18C17.0834 17.9779 17.0921 17.9566 17.1079 17.9412C17.1156 17.9334 17.1247 17.9272 17.1348 17.923C17.1449 17.9188 17.1558 17.9166 17.1667 17.9166H17.8334C17.8554 17.9166 17.8767 17.9254 17.8921 17.9412C17.8999 17.9489 17.9061 17.958 17.9103 17.9681C17.9145 17.9782 17.9167 17.989 17.9167 18ZM18.75 21.3333C18.75 21.0904 18.6534 20.8571 18.4817 20.685C18.3096 20.5133 18.0765 20.4168 17.8334 20.4166H17.1667C16.9238 20.4166 16.6904 20.5133 16.5184 20.685C16.3467 20.8571 16.2502 21.0902 16.25 21.3333V22C16.25 22.2429 16.3467 22.4762 16.5184 22.6483C16.6904 22.82 16.9238 22.9166 17.1667 22.9166H17.8334C18.0763 22.9166 18.3096 22.82 18.4817 22.6483C18.6534 22.4762 18.75 22.2429 18.75 22V21.3333ZM17.9167 21.3333V22C17.9167 22.0109 17.9145 22.0217 17.9103 22.0318C17.9061 22.0419 17.8999 22.0511 17.8921 22.0587C17.8844 22.0665 17.8753 22.0727 17.8652 22.077C17.8551 22.0812 17.8443 22.0833 17.8334 22.0833H17.1667C17.1558 22.0833 17.1449 22.0812 17.1348 22.077C17.1247 22.0727 17.1156 22.0665 17.1079 22.0587C17.1001 22.0511 17.0939 22.0419 17.0897 22.0318C17.0855 22.0217 17.0833 22.0109 17.0834 22V21.3333C17.0834 21.3112 17.0921 21.29 17.1079 21.2746C17.1156 21.2668 17.1247 21.2606 17.1348 21.2563C17.1449 21.2521 17.1558 21.25 17.1667 21.25H17.8334C17.8554 21.25 17.8767 21.2587 17.8921 21.2746C17.8999 21.2822 17.9061 21.2914 17.9103 21.3015C17.9145 21.3115 17.9167 21.3224 17.9167 21.3333ZM18.75 24.6666C18.75 24.4237 18.6534 24.1904 18.4817 24.0183C18.3096 23.8466 18.0765 23.7501 17.8334 23.75H17.1667C16.9238 23.75 16.6904 23.8466 16.5184 24.0183C16.3467 24.1904 16.2502 24.4235 16.25 24.6666V25.3333C16.25 25.5762 16.3467 25.8096 16.5184 25.9816C16.6904 26.1533 16.9238 26.25 17.1667 26.25H17.8334C18.0763 26.25 18.3096 26.1533 18.4817 25.9816C18.6534 25.8096 18.75 25.5762 18.75 25.3333V24.6666ZM17.9167 24.6666V25.3333C17.9167 25.3442 17.9145 25.3551 17.9103 25.3652C17.9061 25.3753 17.8999 25.3844 17.8921 25.3921C17.8844 25.3999 17.8753 25.4061 17.8652 25.4103C17.8551 25.4145 17.8443 25.4167 17.8334 25.4166H17.1667C17.1558 25.4167 17.1449 25.4145 17.1348 25.4103C17.1247 25.4061 17.1156 25.3999 17.1079 25.3921C17.1001 25.3844 17.0939 25.3753 17.0897 25.3652C17.0855 25.3551 17.0833 25.3442 17.0834 25.3333V24.6666C17.0834 24.6446 17.0921 24.6233 17.1079 24.6079C17.1156 24.6001 17.1247 24.5939 17.1348 24.5897C17.1449 24.5855 17.1558 24.5833 17.1667 24.5833H17.8334C17.8554 24.5833 17.8767 24.5921 17.8921 24.6079C17.8999 24.6156 17.9061 24.6247 17.9103 24.6348C17.9145 24.6449 17.9167 24.6557 17.9167 24.6666ZM22.0834 18C22.0834 17.7571 21.9867 17.5237 21.815 17.3516C21.6429 17.1799 21.4098 17.0835 21.1667 17.0833H20.5C20.2571 17.0833 20.0238 17.18 19.8517 17.3516C19.68 17.5237 19.5835 17.7569 19.5834 18V18.6666C19.5834 18.9096 19.68 19.1429 19.8517 19.315C20.0238 19.4866 20.2571 19.5833 20.5 19.5833H21.1667C21.4096 19.5833 21.6429 19.4866 21.815 19.315C21.9867 19.1429 22.0834 18.9096 22.0834 18.6666V18ZM21.25 18V18.6666C21.25 18.6776 21.2479 18.6884 21.2437 18.6985C21.2394 18.7086 21.2332 18.7177 21.2254 18.7254C21.2178 18.7332 21.2086 18.7394 21.1985 18.7436C21.1885 18.7478 21.1776 18.75 21.1667 18.75H20.5C20.4891 18.75 20.4783 18.7478 20.4682 18.7436C20.4581 18.7394 20.4489 18.7332 20.4413 18.7254C20.4335 18.7177 20.4273 18.7086 20.423 18.6985C20.4188 18.6884 20.4167 18.6776 20.4167 18.6666V18C20.4167 17.9779 20.4254 17.9566 20.4413 17.9412C20.4489 17.9334 20.4581 17.9272 20.4682 17.923C20.4783 17.9188 20.4891 17.9166 20.5 17.9166H21.1667C21.1888 17.9166 21.21 17.9254 21.2254 17.9412C21.2332 17.9489 21.2394 17.958 21.2437 17.9681C21.2479 17.9782 21.25 17.989 21.25 18ZM25.4167 18C25.4167 17.7571 25.32 17.5237 25.1484 17.3516C24.9763 17.1799 24.7431 17.0835 24.5 17.0833H23.8334C23.5904 17.0833 23.3571 17.18 23.185 17.3516C23.0133 17.5237 22.9168 17.7569 22.9167 18V18.6666C22.9167 18.9096 23.0134 19.1429 23.185 19.315C23.3571 19.4866 23.5904 19.5833 23.8334 19.5833H24.5C24.7429 19.5833 24.9763 19.4866 25.1484 19.315C25.32 19.1429 25.4167 18.9096 25.4167 18.6666V18ZM24.5834 18V18.6666C24.5834 18.6776 24.5812 18.6884 24.577 18.6985C24.5728 18.7086 24.5666 18.7177 24.5588 18.7254C24.5511 18.7332 24.542 18.7394 24.5319 18.7436C24.5218 18.7478 24.511 18.75 24.5 18.75H23.8334C23.8224 18.75 23.8116 18.7478 23.8015 18.7436C23.7914 18.7394 23.7823 18.7332 23.7746 18.7254C23.7668 18.7177 23.7606 18.7086 23.7564 18.6985C23.7522 18.6884 23.75 18.6776 23.75 18.6666V18C23.75 17.9779 23.7588 17.9566 23.7746 17.9412C23.7823 17.9334 23.7914 17.9272 23.8015 17.923C23.8116 17.9188 23.8224 17.9166 23.8334 17.9166H24.5C24.5221 17.9166 24.5434 17.9254 24.5588 17.9412C24.5666 17.9489 24.5728 17.958 24.577 17.9681C24.5812 17.9782 24.5834 17.989 24.5834 18Z" fill="#EF4444"/>
<path fill-rule="evenodd" clip-rule="evenodd" d="M21.4654 27.9167H12.5C11.9475 27.9166 11.4176 27.6972 11.0267 27.3067C10.6362 26.9158 10.4168 26.3859 10.4167 25.8333V14.1667C10.4167 13.6141 10.6362 13.0842 11.0269 12.6935C11.4176 12.3028 11.9475 12.0833 12.5 12.0833H13.75V11.6667C13.75 11.3351 13.8817 11.0172 14.1161 10.7828C14.3506 10.5484 14.6685 10.4167 15 10.4167C15.3315 10.4167 15.6495 10.5484 15.8839 10.7828C16.1183 11.0172 16.25 11.3351 16.25 11.6667V12.0833H22.0834V11.6667C22.0834 11.3351 22.215 11.0172 22.4495 10.7828C22.6839 10.5484 23.0018 10.4167 23.3334 10.4167C23.6649 10.4167 23.9828 10.5484 24.2172 10.7828C24.4517 11.0172 24.5834 11.3351 24.5834 11.6667V12.0833H25.8334C26.3859 12.0833 26.9158 12.3028 27.3065 12.6935C27.6972 13.0842 27.9167 13.6141 27.9167 14.1667V21.4654C28.9346 22.3067 29.5834 23.5779 29.5834 25C29.5834 27.5296 27.5296 29.5833 25 29.5833C24.3243 29.5838 23.657 29.4346 23.0458 29.1464C22.4347 28.8582 21.8949 28.4383 21.4654 27.9167ZM25 21.25C27.0696 21.25 28.75 22.9304 28.75 25C28.75 27.0696 27.0696 28.75 25 28.75C22.9304 28.75 21.25 27.0696 21.25 25C21.25 22.9304 22.9304 21.25 25 21.25ZM27.0834 20.9171V16.25H11.25V25.8333C11.25 26.165 11.3817 26.4829 11.6163 26.7171C11.7323 26.8332 11.87 26.9254 12.0217 26.9882C12.1733 27.0511 12.3359 27.0834 12.5 27.0833H20.9171C20.5971 26.4583 20.4167 25.75 20.4167 25C20.4167 22.4704 22.4704 20.4167 25 20.4167C25.75 20.4167 26.4584 20.5971 27.0834 20.9171ZM24.5834 12.9167V13.3333C24.5834 13.6648 24.4517 13.9828 24.2172 14.2172C23.9828 14.4516 23.6649 14.5833 23.3334 14.5833C23.0018 14.5833 22.6839 14.4516 22.4495 14.2172C22.215 13.9828 22.0834 13.6648 22.0834 13.3333V12.9167H16.25V13.3333C16.25 13.6648 16.1183 13.9828 15.8839 14.2172C15.6495 14.4516 15.3315 14.5833 15 14.5833C14.6685 14.5833 14.3506 14.4516 14.1161 14.2172C13.8817 13.9828 13.75 13.6648 13.75 13.3333V12.9167H12.5C12.1685 12.9167 11.8506 13.0484 11.6161 13.2828C11.3817 13.5172 11.25 13.8351 11.25 14.1667V15.4167H27.0834V14.1667C27.0834 13.8351 26.9517 13.5172 26.7172 13.2828C26.4828 13.0484 26.1649 12.9167 25.8334 12.9167H24.5834ZM23.75 11.6667V13.3333C23.75 13.4438 23.7061 13.5498 23.628 13.628C23.5498 13.7061 23.4439 13.75 23.3334 13.75C23.2228 13.75 23.1169 13.7061 23.0387 13.628C22.9606 13.5498 22.9167 13.4438 22.9167 13.3333V11.6667C22.9167 11.5561 22.9606 11.4502 23.0387 11.372C23.1169 11.2939 23.2228 11.25 23.3334 11.25C23.4439 11.25 23.5498 11.2939 23.628 11.372C23.7061 11.4502 23.75 11.5561 23.75 11.6667ZM15.4167 11.6667V13.3333C15.4167 13.4438 15.3728 13.5498 15.2946 13.628C15.2165 13.7061 15.1105 13.75 15 13.75C14.8895 13.75 14.7835 13.7061 14.7054 13.628C14.6273 13.5498 14.5834 13.4438 14.5834 13.3333V11.6667C14.5834 11.5561 14.6273 11.4502 14.7054 11.372C14.7835 11.2939 14.8895 11.25 15 11.25C15.1105 11.25 15.2165 11.2939 15.2946 11.372C15.3728 11.4502 15.4167 11.5561 15.4167 11.6667Z" fill="#EF4444"/>
</g>
<defs>
<clipPath id="clip0_2118_18741">
<rect width="20" height="20" fill="white" transform="translate(10 10)"/>
</clipPath>
</defs>
</svg>
