<svg width="32" height="32" viewBox="0 0 32 32" fill="none" xmlns="http://www.w3.org/2000/svg">
<path d="M21.7789 19.1456C19.9574 17.3241 19.9574 14.3543 21.7789 12.5328C23.6004 10.7113 26.5702 10.7113 28.3917 12.5328C30.2133 14.3543 30.1935 17.3439 28.372 19.1654C26.5504 20.9869 23.6004 20.9671 21.7789 19.1456ZM23.0856 17.8389C24.1746 18.9278 25.9565 18.9278 27.0454 17.8389C28.1344 16.7499 28.1344 14.968 27.0454 13.8791C25.9565 12.7901 24.1746 12.7901 23.0856 13.8791C21.9967 14.968 21.9967 16.7499 23.0856 17.8389ZM16.3342 9.22633L16.3342 22.4917C16.3342 22.9668 16.7103 23.343 17.1657 23.3232L17.3637 23.3232C17.8389 23.3232 18.2151 22.947 18.1953 22.4917L18.1953 9.22633C18.1953 8.75115 17.8191 8.37497 17.3637 8.39477L17.1657 8.39477C16.7103 8.37497 16.3342 8.75115 16.3342 9.22633ZM12.612 7.36522L12.612 24.3528C12.612 24.8279 12.9881 25.2041 13.4435 25.1843L13.6415 25.1843C14.1167 25.1843 14.4929 24.8081 14.4731 24.3528L14.4731 7.36522C14.4731 6.89005 14.0969 6.51387 13.6415 6.53367L13.4435 6.53367C12.9683 6.53367 12.5922 6.90985 12.612 7.36522ZM9.12733 24.9863L0.593969 16.453C0.257387 16.1164 0.257386 15.6016 0.593969 15.265L9.12733 6.73166C9.66191 6.19708 10.5529 6.57326 10.5529 7.32562L10.5529 24.3924C10.5529 25.1447 9.66191 25.5209 9.12733 24.9863ZM8.69176 19.8782L8.69176 11.8398C8.69176 11.0874 7.8008 10.7113 7.26623 11.2458L3.24703 15.265C2.91045 15.6016 2.91045 16.1164 3.24703 16.453L7.26623 20.4722C7.8008 21.0067 8.69176 20.6305 8.69176 19.8782Z" fill="#2DBEFF"/>
</svg>
