<svg width="20" height="20" viewBox="0 0 20 20" fill="none" xmlns="http://www.w3.org/2000/svg">
<path d="M17.845 1.2552H16.2344V0.585938C16.2344 0.262344 15.972 0 15.6484 0C15.3248 0 15.0625 0.262344 15.0625 0.585938V1.2552H12.4688V0.585938C12.4688 0.262344 12.2064 0 11.8828 0C11.5592 0 11.2969 0.262344 11.2969 0.585938V1.2552H8.70312V0.585938C8.70312 0.262344 8.44078 0 8.11719 0C7.79359 0 7.53125 0.262344 7.53125 0.585938V1.2552H4.9375V0.585938C4.9375 0.262344 4.67516 0 4.35156 0C4.02797 0 3.76562 0.262344 3.76562 0.585938V1.2552H2.15492C0.966719 1.2552 0 2.22188 0 3.41016V17.845C0 19.0333 0.966719 20 2.15492 20H17.845C19.0332 20 20 19.0333 20 17.845V3.41016C20 2.22188 19.0332 1.2552 17.845 1.2552ZM2.15492 2.42707H3.76562V3.09637C3.76562 3.41996 4.02797 3.6823 4.35156 3.6823C4.67516 3.6823 4.9375 3.41996 4.9375 3.09637V2.42707H7.53117V3.09637C7.53117 3.41996 7.79352 3.6823 8.11711 3.6823C8.4407 3.6823 8.70305 3.41996 8.70305 3.09637V2.42707H11.2968V3.09637C11.2968 3.41996 11.5591 3.6823 11.8827 3.6823C12.2063 3.6823 12.4687 3.41996 12.4687 3.09637V2.42707H15.0624V3.09637C15.0624 3.41996 15.3248 3.6823 15.6484 3.6823C15.972 3.6823 16.2343 3.41996 16.2343 3.09637V2.42707H17.8449C18.3871 2.42707 18.8281 2.86809 18.8281 3.41016V5.02082H1.17188V3.41016C1.17188 2.86809 1.61289 2.42707 2.15492 2.42707ZM17.845 18.8281H2.15492C1.61289 18.8281 1.17188 18.3871 1.17188 17.845V6.1927H18.8281V17.845C18.8281 18.3871 18.3871 18.8281 17.845 18.8281Z" fill="#2DBEFF"/>
</svg>
