<svg width="24" height="24" viewBox="0 0 24 24" fill="none" xmlns="http://www.w3.org/2000/svg">
<g clip-path="url(#clip0_2105_18024)">
<path d="M23.6836 8.81536C23.9471 9.08269 24.0212 9.30367 24.0251 9.67289C24.0246 9.72387 24.0242 9.77485 24.0238 9.82738C24.0241 9.88217 24.0244 9.93697 24.0247 9.99342C24.0253 10.1449 24.0251 10.2964 24.0245 10.4479C24.0241 10.6115 24.0247 10.7751 24.0252 10.9387C24.0261 11.2589 24.0259 11.5792 24.0253 11.8994C24.0249 12.1597 24.0249 12.42 24.0251 12.6803C24.0251 12.7174 24.0251 12.7545 24.0252 12.7927C24.0252 12.868 24.0253 12.9433 24.0253 13.0186C24.0259 13.7245 24.0253 14.4304 24.0242 15.1363C24.0234 15.7419 24.0236 16.3474 24.0244 16.9529C24.0254 17.6563 24.0258 18.3598 24.0252 19.0632C24.0252 19.1382 24.0251 19.2132 24.0251 19.2883C24.025 19.3436 24.025 19.3436 24.025 19.4001C24.0248 19.6601 24.0251 19.92 24.0255 20.18C24.0261 20.4968 24.0259 20.8137 24.0249 21.1306C24.0244 21.2922 24.0242 21.4538 24.0249 21.6154C24.0254 21.7907 24.0247 21.9659 24.0238 22.1412C24.0242 22.1922 24.0246 22.2432 24.0251 22.2957C24.0214 22.6511 23.9581 22.8518 23.7184 23.1214C23.2641 23.522 22.7512 23.7099 22.1719 23.8593C22.1414 23.8672 22.111 23.8751 22.0797 23.8832C21.524 24.0173 20.956 24.0145 20.3877 24.0175C20.3502 24.0179 20.3127 24.0183 20.2741 24.0186C19.5832 24.0239 18.9006 23.9556 18.2373 23.7509C18.2047 23.741 18.1722 23.7311 18.1386 23.7209C17.6414 23.5629 17.1497 23.3119 16.8713 22.856C16.7495 22.606 16.7551 22.3681 16.7574 22.0944C16.7571 22.0401 16.7568 21.9859 16.7565 21.93C16.7559 21.7804 16.7561 21.6307 16.7567 21.481C16.7571 21.3193 16.7565 21.1575 16.756 20.9958C16.7551 20.6792 16.7553 20.3627 16.7559 20.0462C16.7563 19.7888 16.7563 19.5315 16.7561 19.2742C16.7561 19.2376 16.7561 19.2009 16.756 19.1631C16.756 19.0887 16.7559 19.0142 16.7559 18.9397C16.7553 18.2418 16.7559 17.5438 16.757 16.8459C16.7578 16.2474 16.7576 15.6488 16.7568 15.0503C16.7558 14.3548 16.7554 13.6593 16.756 12.9638C16.756 12.8897 16.7561 12.8155 16.7561 12.7413C16.7562 12.7048 16.7562 12.6682 16.7562 12.6306C16.7564 12.3737 16.7561 12.1168 16.7557 11.8599C16.7551 11.5466 16.7553 11.2334 16.7563 10.9202C16.7568 10.7605 16.757 10.6007 16.7564 10.441C16.7558 10.2677 16.7565 10.0944 16.7574 9.92111C16.757 9.87085 16.7566 9.82058 16.7561 9.76879C16.76 9.40113 16.8396 9.10611 17.1035 8.83293C18.5553 7.47418 22.1988 7.63196 23.6836 8.81536ZM17.7033 9.47747C17.6646 9.51952 17.6646 9.51952 17.625 9.56243C17.7464 9.84269 17.9727 9.93523 18.2468 10.0464C19.641 10.5403 21.4481 10.571 22.8047 9.93743C22.9457 9.86205 23.0613 9.78818 23.1562 9.65618C23.1443 9.54269 23.128 9.4862 23.0442 9.40734C21.7684 8.63276 18.894 8.35872 17.7033 9.47747ZM17.625 10.6874C17.5832 11.0618 17.5832 11.0618 17.7334 11.3876C17.8134 11.4393 17.8134 11.4393 17.9062 11.4843C17.9584 11.5135 17.9584 11.5135 18.0117 11.5433C19.2589 12.1782 21.0055 12.13 22.3125 11.7357C22.5436 11.6601 22.7629 11.5679 22.9687 11.4374C23.0033 11.4184 23.038 11.3994 23.0736 11.3797C23.1712 11.2987 23.1712 11.2987 23.1745 11.1498C23.1724 11.0948 23.1702 11.0399 23.1679 10.9833C23.1663 10.928 23.1646 10.8727 23.1628 10.8158C23.1606 10.7734 23.1585 10.7311 23.1562 10.6874C23.1292 10.6966 23.1021 10.7058 23.0742 10.7153C22.9465 10.7584 22.8184 10.8005 22.6904 10.8427C22.6479 10.8572 22.6054 10.8716 22.5616 10.8866C21.8452 11.1204 21.148 11.1821 20.3994 11.1767C20.3583 11.1766 20.3171 11.1764 20.2748 11.1763C19.6722 11.1735 19.0951 11.1487 18.5156 10.9687C18.4819 10.9584 18.4482 10.9481 18.4135 10.9375C18.2582 10.8894 18.1048 10.8383 17.9516 10.7836C17.8427 10.745 17.7375 10.7125 17.625 10.6874ZM17.625 12.2812C17.5838 12.6187 17.5838 12.6187 17.6766 12.9354C18.2366 13.4582 19.3316 13.5704 20.0625 13.5937C20.1115 13.5956 20.1605 13.5974 20.211 13.5994C21.1953 13.6186 22.2059 13.495 23.0625 12.9843C23.1716 12.8958 23.1716 12.8958 23.1654 12.7481C23.1643 12.6926 23.1632 12.6372 23.1621 12.58C23.1612 12.5243 23.1604 12.4686 23.1595 12.4112C23.1584 12.3683 23.1573 12.3254 23.1562 12.2812C23.1306 12.2904 23.1049 12.2996 23.0785 12.3091C21.2483 12.9594 19.4501 12.9333 17.625 12.2812ZM17.625 13.8749C17.5832 14.2131 17.5832 14.2131 17.6783 14.5292C17.7649 14.6087 17.8496 14.6627 17.9531 14.7187C17.9907 14.7392 18.0284 14.7596 18.0672 14.7807C18.6367 15.0498 19.3411 15.1678 19.9687 15.1874C19.9983 15.1884 20.0278 15.1893 20.0582 15.1903C21.0548 15.2181 22.215 15.1619 23.0625 14.5781C23.1703 14.4907 23.1703 14.4907 23.1654 14.3521C23.1643 14.301 23.1632 14.2499 23.1621 14.1972C23.1612 14.1458 23.1604 14.0945 23.1595 14.0416C23.1584 14.002 23.1573 13.9625 23.1562 13.9218C22.9211 13.961 22.6978 14.0359 22.4707 14.1064C22.1391 14.2072 21.8137 14.3014 21.4687 14.3437C21.4293 14.3488 21.3898 14.3539 21.3492 14.3592C20.0699 14.4949 18.822 14.3378 17.625 13.8749ZM17.625 15.4687C17.5905 15.8346 17.5905 15.8346 17.7099 16.1689C18.8633 16.9152 20.5142 16.9203 21.8199 16.6664C22.2428 16.5733 22.7642 16.4527 23.1024 16.1681C23.2199 15.9715 23.1818 15.7348 23.1562 15.5156C23.0973 15.5339 23.0383 15.5523 22.9775 15.5712C21.2058 16.0975 19.3621 16.2007 17.625 15.4687ZM17.625 17.1093C17.5804 17.4469 17.5804 17.4469 17.6788 17.7619C18.537 18.4841 20.1442 18.4482 21.178 18.3643C21.8398 18.2934 22.6671 18.1609 23.1562 17.6718C23.1596 17.5771 23.1602 17.4823 23.1592 17.3876C23.1587 17.3358 23.1583 17.2841 23.1579 17.2307C23.1573 17.1906 23.1568 17.1506 23.1562 17.1093C23.1202 17.1205 23.1202 17.1205 23.0834 17.1318C22.9516 17.172 22.8196 17.211 22.6875 17.2499C22.6411 17.2639 22.6411 17.2639 22.5938 17.2781C22.4894 17.3093 22.3849 17.3397 22.2802 17.37C22.2478 17.3799 22.2153 17.3897 22.1819 17.3998C21.6003 17.5661 21.0038 17.596 20.4023 17.5927C20.3535 17.5926 20.3535 17.5926 20.3036 17.5924C19.4565 17.5887 18.6572 17.4777 17.8707 17.149C17.7624 17.101 17.7624 17.101 17.625 17.1093ZM17.625 18.7031C17.5785 19.0439 17.5785 19.0439 17.6854 19.3573C18.6065 20.1001 20.2427 20.0623 21.3592 19.9454C21.9754 19.8642 22.7032 19.7185 23.1562 19.2656C23.1676 19.1297 23.1676 19.1297 23.1621 18.9784C23.1612 18.9271 23.1604 18.8757 23.1595 18.8228C23.1584 18.7833 23.1573 18.7438 23.1562 18.7031C23.0908 18.7226 23.0254 18.7421 22.9599 18.7616C22.9167 18.7745 22.8734 18.7873 22.8288 18.8005C22.7361 18.8288 22.6438 18.8586 22.552 18.8898C21.0608 19.3869 19.4303 19.2606 17.9531 18.7968C17.8439 18.7649 17.7345 18.7339 17.625 18.7031ZM17.625 20.2968C17.5779 20.6383 17.5779 20.6383 17.687 20.951C18.407 21.5231 19.4794 21.5733 20.3584 21.5741C20.4084 21.5742 20.4084 21.5742 20.4594 21.5743C21.3748 21.5734 22.3321 21.4987 23.0969 20.9406C23.1859 20.8186 23.1698 20.7177 23.165 20.5693C23.1637 20.5183 23.1625 20.4674 23.1612 20.4149C23.1587 20.3564 23.1587 20.3564 23.1562 20.2968C23.104 20.3152 23.0518 20.3335 22.998 20.3525C22.7758 20.4259 22.552 20.4929 22.3271 20.5575C22.2941 20.5674 22.261 20.5772 22.227 20.5873C21.6261 20.7572 21.0221 20.7833 20.4023 20.7802C20.3464 20.78 20.3464 20.78 20.2893 20.7798C19.3926 20.7755 18.6511 20.6316 17.8063 20.3247C17.7192 20.2921 17.7192 20.2921 17.625 20.2968ZM17.625 21.8906C17.5832 22.265 17.5832 22.265 17.7334 22.5907C17.8134 22.6425 17.8134 22.6425 17.9062 22.6874C17.9584 22.7166 17.9584 22.7166 18.0117 22.7464C18.7115 23.1027 19.5077 23.1655 20.2792 23.1674C20.386 23.1679 20.4927 23.1693 20.5994 23.1708C21.4121 23.1767 22.406 23.0768 23.087 22.5948C23.2349 22.3921 23.1847 22.1277 23.1562 21.8906C23.1292 21.8998 23.1021 21.909 23.0742 21.9184C22.9465 21.9615 22.8184 22.0037 22.6904 22.0458C22.6479 22.0603 22.6054 22.0748 22.5616 22.0897C21.8897 22.309 21.2338 22.383 20.5307 22.3776C20.4141 22.3769 20.2976 22.3776 20.1809 22.3785C19.535 22.3794 18.9138 22.3051 18.2988 22.0986C18.075 22.0245 17.8519 21.9539 17.625 21.8906Z" fill="#2DBEFF"/>
<path d="M13.7344 12.9371C13.7684 12.9451 13.8024 12.9531 13.8375 12.9614C14.4287 13.1051 15.0944 13.3153 15.4687 13.8277C15.5963 14.0435 15.6297 14.2196 15.6278 14.4659C15.6281 14.5009 15.6284 14.5359 15.6287 14.572C15.6295 14.6888 15.6293 14.8055 15.629 14.9224C15.6294 15.0063 15.6298 15.0902 15.6302 15.1742C15.6313 15.4019 15.6314 15.6296 15.6313 15.8573C15.6313 16.0475 15.6317 16.2377 15.6321 16.4279C15.633 16.8768 15.6332 17.3257 15.6328 17.7745C15.6325 18.2372 15.6336 18.7 15.6353 19.1627C15.6368 19.5603 15.6373 19.9578 15.6371 20.3554C15.637 20.5927 15.6373 20.83 15.6384 21.0674C15.6395 21.2906 15.6394 21.5138 15.6384 21.7371C15.6383 21.8188 15.6385 21.9006 15.6392 21.9824C15.645 22.744 15.645 22.744 15.375 23.0621C15.3474 23.0946 15.3199 23.1271 15.2915 23.1606C14.1975 24.1303 12.4761 24.0587 11.1093 23.9996C10.2485 23.9444 9.21769 23.6891 8.59861 23.0577C8.42273 22.8244 8.36989 22.6176 8.37211 22.3301C8.37183 22.2951 8.37154 22.2601 8.37125 22.224C8.37047 22.1072 8.37069 21.9904 8.37092 21.8736C8.37057 21.7897 8.37017 21.7057 8.36971 21.6218C8.36867 21.3941 8.36853 21.1664 8.36862 20.9387C8.36863 20.7485 8.36823 20.5583 8.36784 20.368C8.36694 19.9192 8.3668 19.4703 8.36712 19.0215C8.36743 18.5587 8.36636 18.096 8.36462 17.6333C8.36318 17.2357 8.36265 16.8382 8.36283 16.4406C8.36293 16.2032 8.36267 15.9659 8.36152 15.7286C8.36048 15.5054 8.36057 15.2822 8.36152 15.0589C8.36168 14.9771 8.36144 14.8954 8.36077 14.8136C8.35495 14.052 8.35495 14.052 8.62498 13.7339C8.65253 13.7014 8.68008 13.6689 8.70847 13.6354C9.14625 13.2474 9.70434 13.0675 10.2656 12.9371C10.3251 12.923 10.3845 12.9089 10.4458 12.8944C11.4723 12.681 12.7161 12.6864 13.7344 12.9371ZM9.2902 14.2684C9.22453 14.3403 9.22453 14.3403 9.2371 14.4372C9.34137 14.6583 9.61948 14.7608 9.83652 14.846C10.2363 14.9894 10.6405 15.089 11.0625 15.1402C11.1019 15.1454 11.1414 15.1506 11.182 15.1559C12.2971 15.2811 13.7187 15.2343 14.6719 14.5777C14.7028 14.5467 14.7337 14.5158 14.7656 14.4839C14.7612 14.3509 14.7233 14.3011 14.6308 14.2056C13.8595 13.6965 12.9276 13.6293 12.0293 13.6285C11.9936 13.6284 11.958 13.6284 11.9213 13.6283C11.0171 13.6291 10.035 13.6909 9.2902 14.2684ZM9.23435 15.5152C9.19477 15.8735 9.19477 15.8735 9.31931 16.1919C9.36862 16.2161 9.41792 16.2403 9.46873 16.2652C9.50359 16.2836 9.53846 16.302 9.57438 16.321C10.8393 16.9525 12.6087 16.9672 13.9365 16.5289C14.2322 16.4206 14.5397 16.3036 14.7656 16.0777C14.777 15.9418 14.777 15.9418 14.7715 15.7906C14.7706 15.7392 14.7698 15.6878 14.7689 15.6349C14.7678 15.5954 14.7667 15.5559 14.7656 15.5152C14.5715 15.5481 14.3944 15.6076 14.209 15.6734C12.7173 16.1855 10.9392 16.1325 9.47513 15.5496C9.37046 15.5076 9.37046 15.5076 9.23435 15.5152ZM9.23435 17.1089C9.18784 17.4497 9.18784 17.4497 9.29477 17.7632C10.195 18.4891 11.8363 18.4665 12.9139 18.3513C13.5408 18.268 14.3019 18.1351 14.7656 17.6714C14.769 17.5768 14.7695 17.482 14.7685 17.3873C14.7681 17.3355 14.7677 17.2837 14.7672 17.2303C14.7667 17.1903 14.7662 17.1502 14.7656 17.1089C14.7066 17.1273 14.6477 17.1457 14.5869 17.1646C14.3465 17.2362 14.1053 17.304 13.8633 17.3697C13.8282 17.3795 13.7931 17.3893 13.7569 17.3995C13.1823 17.5533 12.6077 17.5956 12.0146 17.5923C11.9819 17.5922 11.9492 17.5922 11.9156 17.5921C11.1678 17.5888 10.4876 17.4984 9.77872 17.2582C9.59841 17.1991 9.41881 17.1531 9.23435 17.1089ZM9.23435 18.7027C9.18728 19.0442 9.18728 19.0442 9.29642 19.3569C10.2336 20.1016 11.8445 20.0627 12.9686 19.9451C13.5844 19.864 14.3115 19.7193 14.7656 19.2652C14.769 19.1705 14.7695 19.0757 14.7685 18.981C14.7681 18.9292 14.7677 18.8774 14.7672 18.8241C14.7667 18.784 14.7662 18.744 14.7656 18.7027C14.7295 18.7138 14.7295 18.7138 14.6927 18.7252C14.561 18.7653 14.429 18.8044 14.2969 18.8433C14.2657 18.8526 14.2345 18.8619 14.2024 18.8715C14.0973 18.9026 13.992 18.9331 13.8867 18.9634C13.8538 18.9733 13.821 18.9831 13.7871 18.9932C13.2031 19.1595 12.6145 19.1892 12.0117 19.1861C11.9766 19.186 11.9416 19.1859 11.9055 19.1858C11.0555 19.1818 10.3232 19.0395 9.51581 18.7785C9.42262 18.7498 9.32913 18.7255 9.23435 18.7027ZM9.23435 20.2964C9.1932 20.6697 9.1932 20.6697 9.33982 20.9966C9.42001 21.0488 9.42001 21.0488 9.5156 21.0933C9.57297 21.1225 9.57297 21.1225 9.63151 21.1523C10.3728 21.4929 11.165 21.5731 11.9707 21.5738C12.0209 21.5738 12.0209 21.5738 12.072 21.5739C12.9499 21.5726 14.1029 21.5216 14.7656 20.8589C14.777 20.723 14.777 20.723 14.7715 20.5718C14.7706 20.5205 14.7698 20.4691 14.7689 20.4162C14.7678 20.3767 14.7667 20.3371 14.7656 20.2964C14.7134 20.3148 14.6612 20.3332 14.6074 20.3521C14.3852 20.4256 14.1614 20.4926 13.9365 20.5572C13.9035 20.567 13.8704 20.5768 13.8364 20.587C13.2354 20.7568 12.6315 20.7828 12.0117 20.7798C11.9745 20.7797 11.9373 20.7797 11.899 20.7796C11.0677 20.7764 10.3518 20.6533 9.56248 20.3902C9.45339 20.3578 9.34398 20.327 9.23435 20.2964ZM9.23435 21.8902C9.19259 22.2646 9.19259 22.2646 9.34275 22.5904C9.4228 22.6421 9.4228 22.6421 9.5156 22.6871C9.56781 22.7162 9.56781 22.7162 9.62107 22.746C10.194 23.0377 10.8915 23.1614 11.5294 23.1653C11.5645 23.1656 11.5996 23.1659 11.6358 23.1661C11.7099 23.1666 11.784 23.1669 11.8582 23.1671C11.9688 23.1675 12.0793 23.169 12.1899 23.1705C13.0578 23.1765 13.9866 23.0591 14.7063 22.534C14.7953 22.412 14.7792 22.3111 14.7744 22.1626C14.7731 22.1117 14.7719 22.0608 14.7705 22.0083C14.7681 21.9498 14.7681 21.9498 14.7656 21.8902C14.7388 21.8994 14.712 21.9086 14.6843 21.9181C14.5573 21.9612 14.43 22.0033 14.3027 22.0455C14.2606 22.0599 14.2185 22.0744 14.1751 22.0893C13.4987 22.3109 12.8184 22.3829 12.1097 22.3773C11.9969 22.3765 11.8842 22.3773 11.7714 22.3782C11.1241 22.3791 10.5005 22.2953 9.88181 22.0982C9.83373 22.0836 9.83373 22.0836 9.78467 22.0686C9.60024 22.0121 9.41711 21.9519 9.23435 21.8902Z" fill="#2DBEFF"/>
<path d="M3.55074 15.9728C3.58277 15.9727 3.6148 15.9727 3.6478 15.9727C4.72061 15.9743 6.08636 16.0783 6.91878 16.8478C7.09894 17.0516 7.22419 17.2813 7.22561 17.5537C7.22611 17.6199 7.22611 17.6199 7.22663 17.6875C7.22675 17.7361 7.22688 17.7847 7.22701 17.8348C7.22732 17.8858 7.22762 17.9369 7.22794 17.9895C7.22887 18.1592 7.22941 18.3289 7.22988 18.4985C7.23007 18.5564 7.23026 18.6143 7.23046 18.6739C7.23134 18.9488 7.23202 19.2236 7.23241 19.4985C7.23287 19.8153 7.2341 20.1321 7.236 20.4489C7.23758 20.7236 7.23814 20.9983 7.23833 21.273C7.23855 21.3897 7.2391 21.5063 7.23997 21.623C7.24111 21.7865 7.24107 21.9499 7.24074 22.1134C7.24164 22.1855 7.24164 22.1855 7.24256 22.259C7.24003 22.6085 7.16446 22.8532 6.94204 23.1245C6.06199 23.9049 4.74127 24.0289 3.61227 24.0177C3.55395 24.0174 3.55395 24.0174 3.49445 24.0171C2.93088 24.0136 2.37665 24.0015 1.82809 23.8595C1.79495 23.8509 1.76182 23.8424 1.72768 23.8336C1.09318 23.6636 0.442187 23.4295 0.0652671 22.8538C-0.0256173 22.6225 -0.0204161 22.4132 -0.0197225 22.1668C-0.0201195 22.1148 -0.0205165 22.0627 -0.0209255 22.0091C-0.0220209 21.8375 -0.0220689 21.6658 -0.0220113 21.4941C-0.0223442 21.3746 -0.0227051 21.255 -0.0230927 21.1354C-0.023723 20.8849 -0.023805 20.6344 -0.0235219 20.3839C-0.0232108 20.0949 -0.0242821 19.8061 -0.026021 19.5172C-0.0276372 19.2384 -0.0279441 18.9597 -0.0277512 18.681C-0.0278305 18.5628 -0.0282826 18.4446 -0.0291173 18.3263C-0.0301573 18.1608 -0.0297027 17.9954 -0.0288777 17.8299C-0.0294994 17.7813 -0.0301212 17.7327 -0.0307617 17.6826C-0.0266419 17.3261 0.0651279 17.1025 0.308599 16.8427C1.10848 16.0665 2.50021 15.9737 3.55074 15.9728ZM0.843711 17.5313C0.853081 17.6508 0.876818 17.7049 0.961082 17.7904C2.03784 18.528 3.71105 18.5119 4.9374 18.2834C5.45811 18.1734 5.97472 18.0374 6.37496 17.672C6.35739 17.5569 6.34026 17.4968 6.25759 17.4129C4.99089 16.5452 1.99496 16.3801 0.843711 17.5313ZM0.843711 18.7032C0.802562 19.0765 0.802562 19.0765 0.94918 19.4034C1.02937 19.4556 1.02937 19.4556 1.12496 19.5001C1.18233 19.5293 1.18233 19.5293 1.24087 19.5591C2.5834 20.1758 4.37819 20.1491 5.75314 19.6596C5.97913 19.5625 6.19948 19.4412 6.37496 19.2657C6.37836 19.1711 6.37889 19.0763 6.37789 18.9815C6.37747 18.9298 6.37705 18.878 6.37661 18.8246C6.37607 18.7846 6.37552 18.7445 6.37496 18.7032C6.33889 18.7144 6.33889 18.7144 6.30209 18.7257C6.17035 18.7659 6.03831 18.8049 5.90621 18.8438C5.87505 18.8531 5.84388 18.8624 5.81177 18.872C5.70667 18.9031 5.60139 18.9336 5.49606 18.964C5.46319 18.9738 5.43033 18.9836 5.39647 18.9938C4.81247 19.16 4.22387 19.1897 3.62106 19.1866C3.58605 19.1865 3.55105 19.1864 3.51499 19.1864C2.6842 19.1829 1.9614 19.0449 1.17184 18.797C1.06264 18.765 0.953228 18.734 0.843711 18.7032ZM0.843711 20.297C0.801947 20.6714 0.801947 20.6714 0.95211 20.9972C1.03232 21.0488 1.03232 21.0488 1.12496 21.0938C1.17635 21.123 1.17635 21.123 1.22878 21.1528C1.94537 21.5216 2.7898 21.5736 3.58004 21.5743C3.63022 21.5744 3.63022 21.5744 3.68141 21.5744C4.55891 21.5731 5.71102 21.5234 6.37496 20.8595C6.37836 20.7648 6.37889 20.67 6.37789 20.5753C6.37747 20.5235 6.37705 20.4717 6.37661 20.4184C6.37607 20.3783 6.37552 20.3382 6.37496 20.297C6.30952 20.3165 6.2441 20.336 6.17867 20.3556C6.11387 20.3748 6.11387 20.3748 6.04775 20.3944C5.95445 20.4229 5.86153 20.4526 5.76907 20.4837C4.28765 20.9732 2.63613 20.8788 1.17184 20.3907C1.06275 20.3583 0.953344 20.3275 0.843711 20.297ZM0.843711 21.8907C0.790125 22.2601 0.790125 22.2601 0.912925 22.5949C1.6489 23.1159 2.71036 23.1834 3.58297 23.1739C3.61868 23.1737 3.65439 23.1735 3.69119 23.1733C4.5801 23.1674 5.7025 23.1257 6.37496 22.4532C6.38637 22.3173 6.38637 22.3173 6.38082 22.1661C6.37997 22.1148 6.37913 22.0634 6.37826 22.0105C6.37717 21.971 6.37608 21.9314 6.37496 21.8907C6.32275 21.9091 6.27055 21.9275 6.21676 21.9464C5.9937 22.0203 5.76884 22.0869 5.54293 22.1515C5.49277 22.1662 5.49277 22.1662 5.4416 22.1813C4.83503 22.3519 4.23497 22.3785 3.60934 22.377C3.56888 22.377 3.52842 22.377 3.48674 22.377C2.54462 22.3742 1.72778 22.2146 0.843711 21.8907Z" fill="#2DBEFF"/>
<path d="M19.5938 0C21.0478 0 22.5019 0 24 0C24 1.45406 24 2.90812 24 4.40625C23.7216 4.40625 23.4431 4.40625 23.1562 4.40625C23.1408 3.46266 23.1253 2.51906 23.1094 1.54688C22.9209 1.77951 22.7325 2.01214 22.5383 2.25182C21.677 3.3018 20.7806 4.3199 19.86 5.31817C19.7961 5.3875 19.7322 5.45689 19.6684 5.52629C17.6315 7.73748 15.7357 9.62975 12.5972 9.7638C11.9725 9.7838 11.3516 9.7569 10.7285 9.71191C10.6815 9.70853 10.6346 9.70514 10.5862 9.70165C9.75004 9.63949 8.91509 9.56061 8.08781 9.42255C8.0124 9.41047 7.93699 9.39841 7.86157 9.38637C7.72326 9.36419 7.58612 9.33886 7.4488 9.31124C7.10812 9.2502 7.10812 9.2502 6.7944 9.36713C6.67581 9.47313 6.5723 9.58264 6.46875 9.70312C6.38645 9.77136 6.3036 9.83897 6.21973 9.90527C5.99406 10.0877 5.78207 10.2811 5.57047 10.4793C5.37408 10.6622 5.1693 10.8316 4.95996 10.9995C4.80945 11.1249 4.66639 11.2567 4.52344 11.3906C4.30131 11.5987 4.07244 11.7933 3.83496 11.9839C3.68445 12.1093 3.54139 12.2411 3.39844 12.375C3.17631 12.583 2.94744 12.7777 2.70996 12.9683C2.55945 13.0937 2.41639 13.2255 2.27344 13.3594C2.05171 13.567 1.8235 13.7616 1.58606 13.9514C1.40149 14.1057 1.22724 14.2705 1.05478 14.4382C0.914697 14.5715 0.795035 14.6615 0.609375 14.7188C0.540759 14.6448 0.47246 14.5705 0.404297 14.4961C0.347195 14.4341 0.347195 14.4341 0.28894 14.3708C0.203316 14.2688 0.145412 14.184 0.09375 14.0625C0.155836 14.0097 0.155836 14.0097 0.219177 13.9559C0.488439 13.7265 0.756281 13.4964 1.0166 13.2568C1.17944 13.1073 1.34527 12.9647 1.51758 12.8262C1.74241 12.6449 1.9533 12.4524 2.16392 12.2551C2.3603 12.0722 2.56508 11.9028 2.77441 11.7349C2.92493 11.6094 3.06798 11.4776 3.21094 11.3438C3.43306 11.1357 3.66193 10.941 3.89941 10.7505C4.04993 10.6251 4.19298 10.4933 4.33594 10.3594C4.55806 10.1513 4.78693 9.95665 5.02441 9.76611C5.17493 9.64068 5.31798 9.50889 5.46094 9.375C5.68603 9.16429 5.91686 8.96448 6.15784 8.77185C6.27699 8.68253 6.27699 8.68253 6.34085 8.5977C6.42548 8.50238 6.49428 8.44688 6.60938 8.39062C6.81032 8.38355 7.00017 8.41677 7.19736 8.45384C7.37608 8.48708 7.55582 8.51399 7.73544 8.54188C7.77392 8.54798 7.8124 8.55408 7.85204 8.56037C8.68235 8.69028 9.52129 8.75878 10.3594 8.81543C10.4058 8.8186 10.4522 8.82177 10.5001 8.82504C12.9479 8.98566 14.9172 8.69349 16.8126 7.04595C17.6734 6.28172 18.4728 5.46159 19.251 4.61426C19.292 4.56974 19.3329 4.52523 19.3751 4.47937C20.4437 3.31695 21.4622 2.11972 22.4531 0.890625C21.0377 0.867422 21.0377 0.867422 19.5938 0.84375C19.5938 0.565313 19.5938 0.286875 19.5938 0Z" fill="#2DBEFF"/>
</g>
<defs>
<clipPath id="clip0_2105_18024">
<rect width="24" height="24" fill="white"/>
</clipPath>
</defs>
</svg>
