<svg width="32" height="30" viewBox="0 0 32 30" fill="none" xmlns="http://www.w3.org/2000/svg">
<path d="M17.782 0.749685L17.9634 0.919678L31.5131 14.231L30.0599 15.7091L28.1941 13.8765L28.1951 27.9269C28.1951 29.0194 27.3493 29.915 26.2765 29.9938L26.122 30H5.39108C4.29856 30 3.40298 29.1542 3.32317 28.0814L3.31799 27.9269L3.31695 13.8776L1.45324 15.7091L0 14.231L13.5352 0.933154C14.6889 -0.244364 16.5495 -0.309666 17.782 0.749685ZM15.1015 2.30865L15.0019 2.39883L5.39004 11.8407L5.39108 27.9269L10.5728 27.9259L10.5738 17.5614C10.5738 16.4689 11.4196 15.5733 12.4925 15.4935L12.6469 15.4883H18.8662C19.9587 15.4883 20.8543 16.3342 20.9341 17.407L20.9393 17.5614L20.9382 27.9259L26.122 27.9269L26.121 11.8397L16.4821 2.36981C16.1048 1.99976 15.5161 1.97696 15.1015 2.30865ZM18.8662 17.5614H12.6469L12.6459 27.9259H18.8652L18.8662 17.5614Z" fill="#222222"/>
</svg>
