<svg width="31" height="31" viewBox="0 0 31 31" fill="none" xmlns="http://www.w3.org/2000/svg">
<g clip-path="url(#clip0_2084_17710)">
<path d="M22.353 -0.0193546C22.3971 -0.0192443 22.4413 -0.0191339 22.4868 -0.0190202C23.1413 -0.0162645 23.7647 0.010991 24.4002 0.181207C24.439 0.191275 24.4778 0.201343 24.5177 0.211717C26.1651 0.648436 27.7363 1.57761 28.8201 2.90582C28.867 2.96248 28.9138 3.01914 28.962 3.07752C30.3964 4.85231 31.0215 7.13182 30.7903 9.39497C30.6218 10.7555 30.1605 12.0766 29.3651 13.1988C29.3224 13.2593 29.2798 13.3199 29.2359 13.3823C27.8835 15.2213 25.9221 16.4047 23.6737 16.771C23.6125 16.7822 23.5513 16.7934 23.4882 16.8049C21.6245 17.0138 19.6205 16.7064 18.0305 15.6602C17.9212 15.6071 17.9212 15.6071 17.8109 15.6626C17.6526 15.758 17.5373 15.8691 17.4067 16C17.3524 16.0541 17.2981 16.1083 17.2421 16.1641C17.1823 16.2243 17.1226 16.2845 17.0629 16.3447C16.9996 16.4079 16.9364 16.4712 16.8731 16.5344C16.7014 16.706 16.5302 16.878 16.359 17.05C16.18 17.2298 16.0006 17.4092 15.8213 17.5887C15.4818 17.9285 15.1427 18.2687 14.8036 18.6089C14.4176 18.9963 14.0312 19.3833 13.6448 19.7704C12.85 20.5664 12.0556 21.3629 11.2615 22.1597C11.5324 22.4817 11.5324 22.4817 11.8234 22.7852C11.8578 22.8187 11.8921 22.8523 11.9275 22.8869C11.9633 22.9216 11.999 22.9563 12.0359 22.992C12.1136 23.0684 12.1914 23.1448 12.2691 23.2213C12.3898 23.3398 12.5108 23.4581 12.6322 23.576C12.7506 23.6911 12.8682 23.8069 12.9857 23.9229C13.0217 23.9575 13.0578 23.9921 13.0949 24.0277C13.5353 24.4654 13.7061 24.928 13.7109 25.5475C13.6989 26.0276 13.5207 26.4129 13.2031 26.7729C12.7913 27.1574 12.3256 27.3296 11.7604 27.319C10.9993 27.2473 10.532 26.7782 10.0203 26.2542C9.97632 26.2096 9.9323 26.1651 9.88695 26.1192C9.77976 26.0106 9.67286 25.9017 9.56624 25.7925C9.29282 26.0212 9.03265 26.2573 8.78291 26.5115C8.75306 26.5417 8.7232 26.5718 8.69245 26.6028C8.62029 26.6757 8.54832 26.7487 8.47639 26.8218C8.65151 27.037 8.83213 27.2403 9.03054 27.4342C9.06498 27.4679 9.09943 27.5016 9.13491 27.5363C9.20419 27.6036 9.27386 27.6706 9.34396 27.7371C9.76385 28.1455 9.97997 28.5867 9.99432 29.1765C9.97001 29.7344 9.81152 30.181 9.39973 30.5682C8.92298 30.9423 8.53397 31.0265 7.92792 31.0317C7.12115 30.923 6.70057 30.416 6.16047 29.853C6.03893 29.7279 5.91713 29.6032 5.7952 29.4785C5.71984 29.4013 5.64475 29.3238 5.56998 29.246C5.35862 29.0274 5.14126 28.8287 4.90413 28.6382C4.65475 28.7356 4.49524 28.9168 4.31521 29.107C4.24706 29.1773 4.17886 29.2475 4.11063 29.3177C4.00422 29.4279 3.89811 29.5383 3.79267 29.6494C3.29017 30.1773 2.8469 30.5855 2.0842 30.6424C1.49447 30.6177 1.03295 30.4167 0.628004 29.993C0.28915 29.5865 0.135324 29.1559 0.158529 28.6259C0.274115 27.7727 0.860457 27.2841 1.44322 26.7032C1.50279 26.6436 1.56234 26.584 1.62189 26.5244C1.7844 26.3617 1.9471 26.1993 2.10984 26.0368C2.28572 25.8612 2.46143 25.6854 2.63716 25.5096C2.94127 25.2055 3.24549 24.9015 3.54979 24.5975C3.98974 24.158 4.42953 23.7184 4.86928 23.2787C5.58283 22.5653 6.29651 21.852 7.01027 21.1389C7.70344 20.4462 8.39655 19.7536 9.08956 19.0608C9.15369 18.9967 9.15369 18.9967 9.21911 18.9313C9.43359 18.7169 9.64807 18.5025 9.86254 18.2881C11.6405 16.5107 13.4187 14.7336 15.1971 12.9566C15.148 12.8594 15.148 12.8594 15.0979 12.7602C15.0543 12.6735 15.0106 12.5867 14.967 12.4999C14.9455 12.4574 14.924 12.4149 14.9019 12.3711C14.2283 11.0298 13.8402 9.56187 13.9256 8.0523C13.9289 7.99299 13.9289 7.99299 13.9322 7.93248C14.0623 5.82699 14.9078 4.0104 16.3475 2.48199C16.3868 2.43805 16.4262 2.39411 16.4667 2.34883C17.0493 1.72478 17.8197 1.21434 18.5877 0.847223C18.6595 0.812569 18.7313 0.777915 18.8053 0.742212C19.2325 0.542602 19.6623 0.380209 20.1165 0.253106C20.1586 0.241316 20.2008 0.229526 20.2441 0.217378C20.9453 0.0318522 21.6309 -0.0230961 22.353 -0.0193546ZM16.6502 3.69293C15.3948 5.1919 14.8263 7.18447 14.9965 9.11565C15.1211 10.3366 15.5466 11.5247 16.2356 12.5439C16.3609 12.7349 16.4033 12.8497 16.408 13.0777C16.298 13.3365 16.1702 13.5197 15.9718 13.7174C15.9196 13.7699 15.8674 13.8223 15.8137 13.8763C15.7558 13.9336 15.6978 13.9908 15.6399 14.0481C15.5784 14.1096 15.5169 14.1711 15.4554 14.2327C15.2866 14.4015 15.1173 14.5698 14.9479 14.7379C14.7651 14.9195 14.583 15.1016 14.4007 15.2836C14.0849 15.5989 13.7688 15.9138 13.4525 16.2285C12.9949 16.6838 12.5379 17.1397 12.0811 17.5957C11.3396 18.3359 10.5978 19.0758 9.85571 19.8154C9.8113 19.8596 9.76689 19.9039 9.72114 19.9495C9.40588 20.2637 9.09061 20.5779 8.77534 20.892C8.4151 21.251 8.05487 21.61 7.69465 21.969C7.65028 22.0132 7.6059 22.0574 7.56018 22.103C6.8208 22.8399 6.08176 23.5772 5.34299 24.3147C4.88718 24.7697 4.43105 25.2243 3.97451 25.6786C3.66188 25.9897 3.34957 26.3011 3.03751 26.6128C2.85734 26.7927 2.67703 26.9725 2.49632 27.1518C2.33098 27.316 2.16605 27.4805 2.00146 27.6454C1.94176 27.705 1.88192 27.7645 1.82191 27.8238C1.74047 27.9043 1.65965 27.9855 1.57887 28.0667C1.53377 28.1116 1.48866 28.1565 1.4422 28.2028C1.26435 28.4167 1.20725 28.5725 1.22212 28.8502C1.28671 29.1284 1.36458 29.2916 1.5854 29.4745C1.80596 29.5677 2.00403 29.592 2.24006 29.5464C2.54272 29.3968 2.75349 29.1665 2.98555 28.9275C3.07147 28.8403 3.15741 28.7532 3.24335 28.666C3.37782 28.5289 3.51214 28.3917 3.6463 28.2542C3.77633 28.1213 3.90691 27.9889 4.03755 27.8566C4.07742 27.8154 4.11729 27.7742 4.15836 27.7318C4.52777 27.3584 4.52777 27.3584 4.78303 27.3062C5.06473 27.3298 5.20134 27.3843 5.39759 27.5865C5.46641 27.6563 5.46641 27.6563 5.53662 27.7274C5.58507 27.778 5.63352 27.8286 5.68343 27.8807C5.73432 27.9324 5.78522 27.9842 5.83765 28.0375C6.00024 28.203 6.16178 28.3694 6.32319 28.5361C6.48449 28.7019 6.646 28.8676 6.80809 29.0327C6.90885 29.1354 7.00915 29.2385 7.10892 29.3422C7.41871 29.6586 7.69248 29.9367 8.14717 30.0005C8.44049 29.9579 8.62199 29.8371 8.81744 29.6164C8.96798 29.379 8.95015 29.15 8.90022 28.8804C8.82693 28.7604 8.82693 28.7604 8.72307 28.6555C8.68467 28.6141 8.64627 28.5727 8.60671 28.53C8.36791 28.2845 8.1263 28.0422 7.88228 27.8019C7.77957 27.7008 7.677 27.5995 7.57458 27.498C7.52971 27.4539 7.48485 27.4097 7.43863 27.3642C7.28944 27.2072 7.21103 27.0913 7.16328 26.8786C7.20939 26.6145 7.25784 26.5585 7.43527 26.368C7.48472 26.3148 7.53417 26.2616 7.58511 26.2068C7.84493 25.9354 8.1069 25.6664 8.37261 25.4007C8.46631 25.3069 8.55951 25.2126 8.65271 25.1182C8.71287 25.0579 8.77307 24.9976 8.83329 24.9373C8.9137 24.8565 8.9137 24.8565 8.99573 24.7741C9.1972 24.5928 9.30962 24.5225 9.58137 24.5173C10.1108 24.6673 10.5143 25.2211 10.8907 25.6033C10.9926 25.7067 11.0946 25.81 11.1967 25.9132C11.2412 25.9583 11.2857 26.0035 11.3315 26.0501C11.5428 26.2502 11.7349 26.2401 12.0155 26.2376C12.2679 26.2028 12.3632 26.1005 12.533 25.9136C12.6872 25.7034 12.6805 25.5024 12.6541 25.2476C12.4594 24.8958 12.1751 24.635 11.8892 24.3562C11.7857 24.2539 11.6822 24.1516 11.5787 24.0493C11.416 23.8892 11.253 23.7292 11.09 23.5694C10.9322 23.4146 10.775 23.2591 10.6178 23.1036C10.5688 23.056 10.5199 23.0084 10.4695 22.9593C10.4242 22.9145 10.3789 22.8696 10.3323 22.8234C10.2924 22.7843 10.2525 22.7451 10.2114 22.7049C10.0572 22.5183 9.99164 22.3519 9.98628 22.1105C10.1668 21.5689 10.7552 21.1438 11.1533 20.7465C11.2211 20.6786 11.2888 20.6107 11.3566 20.5428C11.5393 20.3598 11.7222 20.177 11.9052 19.9943C12.0971 19.8026 12.2887 19.6107 12.4805 19.4189C12.802 19.0973 13.1237 18.7757 13.4454 18.4543C13.8174 18.0826 14.1892 17.7107 14.5609 17.3387C14.8805 17.0188 15.2002 16.6991 15.52 16.3795C15.7108 16.1887 15.9016 15.998 16.0922 15.8071C16.2712 15.628 16.4503 15.449 16.6296 15.2701C16.6954 15.2044 16.7611 15.1386 16.8268 15.0728C16.9163 14.9831 17.006 14.8936 17.0958 14.8042C17.1459 14.754 17.1961 14.7038 17.2478 14.6522C17.4124 14.4973 17.5189 14.4158 17.7448 14.3811C18.0753 14.4209 18.294 14.5719 18.5726 14.7465C20.3039 15.7819 22.2659 16.0542 24.2264 15.5901C25.4446 15.2781 26.5892 14.6172 27.4881 13.7437C27.5615 13.677 27.5615 13.677 27.6364 13.6089C28.9902 12.338 29.7054 10.4685 29.7842 8.63855C29.8211 7.26259 29.4933 5.9812 28.8201 4.78277C28.7889 4.72572 28.7577 4.66866 28.7255 4.60988C28.5109 4.23366 28.2507 3.9029 27.9725 3.57183C27.9389 3.53008 27.9054 3.48832 27.8708 3.4453C27.581 3.09524 27.2419 2.8189 26.8826 2.54253C26.8375 2.5071 26.7923 2.47167 26.7457 2.43516C25.8943 1.8022 24.9417 1.39779 23.9158 1.14996C23.8505 1.13388 23.7852 1.1178 23.7179 1.10124C21.0586 0.581484 18.4006 1.70989 16.6502 3.69293Z" fill="black"/>
<path d="M25.1269 3.2699C25.1819 3.29784 25.237 3.32578 25.2937 3.35457C26.4154 3.97757 27.2945 5.02429 27.791 6.19886C27.8629 6.45953 27.8829 6.63373 27.8515 6.90271C27.7607 7.05408 27.7607 7.05408 27.6093 7.1449C27.3218 7.18598 27.1987 7.19516 26.9585 7.03138C26.8113 6.82694 26.7365 6.63645 26.6489 6.40226C26.2091 5.34436 25.2582 4.49827 24.2147 4.06056C22.9253 3.5953 21.666 3.59219 20.4043 4.11756C19.2595 4.66816 18.4698 5.55645 17.9824 6.72107C17.5402 8.00066 17.5826 9.31969 18.1671 10.5469C18.3622 10.9195 18.6075 11.2842 18.9071 11.5793C19.0117 11.6859 19.0117 11.6859 19.0117 11.807C19.0463 11.8224 19.0808 11.8378 19.1165 11.8536C19.2698 11.9368 19.384 12.0362 19.515 12.1514C20.5218 12.9636 21.8058 13.1947 23.0683 13.0785C23.3816 13.031 23.6781 12.9418 23.9765 12.8363C24.0579 12.8101 24.0579 12.8101 24.1409 12.7833C25.2381 12.3951 26.1297 11.4977 26.6292 10.4636C26.8769 9.92457 26.9971 9.35254 27.0973 8.77021C27.1357 8.54703 27.1642 8.38897 27.2877 8.1969C27.4914 8.0758 27.6188 8.07691 27.8515 8.11365C28.0294 8.21204 28.0294 8.21204 28.1543 8.41639C28.3373 9.58845 27.7842 10.8783 27.1212 11.8146C27.043 11.914 26.9636 12.0125 26.8828 12.1097C26.8471 12.1552 26.8114 12.2006 26.7747 12.2474C25.8388 13.38 24.423 14.0438 22.978 14.2008C21.4618 14.3445 19.9697 13.9333 18.7664 12.9886C17.5895 11.9847 16.755 10.6456 16.5898 9.0824C16.5011 7.373 16.9103 5.78293 18.0558 4.47785C19.8698 2.50667 22.7621 2.06224 25.1269 3.2699Z" fill="black"/>
</g>
<defs>
<clipPath id="clip0_2084_17710">
<rect width="31" height="31" fill="white"/>
</clipPath>
</defs>
</svg>
