<svg width="18" height="18" viewBox="0 0 18 18" fill="none" xmlns="http://www.w3.org/2000/svg">
<path d="M5 5.625C5 5.45924 5.06585 5.30027 5.18306 5.18306C5.30027 5.06585 5.45924 5 5.625 5H8.95833C9.12409 5 9.28306 5.06585 9.40027 5.18306C9.51748 5.30027 9.58333 5.45924 9.58333 5.625C9.58333 5.79076 9.51748 5.94973 9.40027 6.06694C9.28306 6.18415 9.12409 6.25 8.95833 6.25H5.625C5.45924 6.25 5.30027 6.18415 5.18306 6.06694C5.06585 5.94973 5 5.79076 5 5.625ZM5 8.95833C5 8.79257 5.06585 8.6336 5.18306 8.51639C5.30027 8.39918 5.45924 8.33333 5.625 8.33333H12.2917C12.4574 8.33333 12.6164 8.39918 12.7336 8.51639C12.8508 8.6336 12.9167 8.79257 12.9167 8.95833C12.9167 9.12409 12.8508 9.28306 12.7336 9.40027C12.6164 9.51749 12.4574 9.58333 12.2917 9.58333H5.625C5.45924 9.58333 5.30027 9.51749 5.18306 9.40027C5.06585 9.28306 5 9.12409 5 8.95833Z" fill="#2DBEFF"/>
<path fill-rule="evenodd" clip-rule="evenodd" d="M7.26333 0H10.6533C11.7958 0 12.6925 4.34617e-08 13.4125 0.0583334C14.1458 0.119167 14.7517 0.2425 15.3 0.5225C16.2017 0.981905 16.9348 1.71499 17.3942 2.61667C17.6742 3.165 17.7975 3.77083 17.8575 4.50417C17.9167 5.22417 17.9167 6.12083 17.9167 7.26333V8.40083C17.9167 9.69167 17.9167 10.4783 17.7233 11.14C17.4974 11.9107 17.0813 12.6122 16.5134 13.1801C15.9455 13.748 15.244 14.164 14.4733 14.39C13.8117 14.5833 13.025 14.5833 11.7342 14.5833H11.1042C10.3817 14.5882 9.67803 14.8138 9.0875 15.23L9.04583 15.2592L6.87083 16.8133C5.61667 17.7083 3.96833 16.415 4.54167 14.985C4.55956 14.9405 4.56625 14.8923 4.56114 14.8446C4.55602 14.797 4.53927 14.7513 4.51236 14.7116C4.48544 14.6719 4.44918 14.6395 4.40677 14.6171C4.36437 14.5947 4.31711 14.5831 4.26917 14.5833H3.76833C2.76891 14.5833 1.81042 14.1863 1.10372 13.4796C0.39702 12.7729 0 11.8144 0 10.815V7.26333C0 6.12083 4.34617e-08 5.22417 0.0583334 4.50417C0.119167 3.77083 0.2425 3.165 0.5225 2.61667C0.981905 1.71499 1.71499 0.981905 2.61667 0.5225C3.165 0.2425 3.77083 0.119167 4.50417 0.0591666C5.22417 -1.86265e-08 6.12083 0 7.26333 0ZM4.60583 1.305C3.95 1.35833 3.52667 1.46167 3.18417 1.63583C2.51746 1.97544 1.97544 2.51746 1.63583 3.18417C1.46083 3.52667 1.35833 3.95 1.305 4.60583C1.25083 5.26917 1.25 6.11417 1.25 7.29167V10.815C1.25 11.4829 1.51532 12.1235 1.9876 12.5957C2.22145 12.8296 2.49907 13.0151 2.80461 13.1416C3.11015 13.2682 3.43762 13.3333 3.76833 13.3333H4.26917C4.5214 13.3331 4.76983 13.3948 4.99271 13.5128C5.21559 13.6309 5.4061 13.8019 5.54757 14.0107C5.68903 14.2195 5.77713 14.4599 5.80414 14.7106C5.83115 14.9614 5.79625 15.215 5.7025 15.4492C5.59333 15.7208 5.90583 15.9658 6.14417 15.7958L8.36667 14.2083C9.16605 13.6449 10.1187 13.3396 11.0967 13.3333H11.6117C13.0633 13.3333 13.655 13.3267 14.1217 13.19C14.6911 13.023 15.2095 12.7155 15.6292 12.2958C16.0488 11.8762 16.3563 11.3578 16.5233 10.7883C16.66 10.3217 16.6667 9.73 16.6667 8.27833V7.29167C16.6667 6.11417 16.6667 5.26917 16.6117 4.60583C16.5583 3.95 16.455 3.52667 16.2808 3.18417C15.9414 2.51759 15.3997 1.97558 14.7333 1.63583C14.39 1.46083 13.9667 1.35833 13.3108 1.305C12.6475 1.25083 11.8025 1.25 10.625 1.25H7.29167C6.11417 1.25 5.26917 1.25 4.60583 1.305Z" fill="#2DBEFF"/>
</svg>
