<svg width="20" height="22" viewBox="0 0 20 22" fill="none" xmlns="http://www.w3.org/2000/svg">
<path d="M8.05279 9.44325C8.98664 9.44325 9.89952 9.16634 10.676 8.64752C11.4525 8.1287 12.0576 7.39128 12.415 6.52852C12.7724 5.66575 12.8659 4.71639 12.6837 3.80048C12.5015 2.88458 12.0518 2.04327 11.3915 1.38293C10.7312 0.722603 9.88984 0.272912 8.97393 0.0907269C8.05803 -0.0914581 7.10867 0.0020458 6.2459 0.359415C5.38314 0.716783 4.64572 1.32197 4.1269 2.09843C3.60808 2.8749 3.33116 3.78778 3.33116 4.72163C3.33175 5.9737 3.8294 7.17432 4.71475 8.05967C5.6001 8.94502 6.80072 9.44266 8.05279 9.44325ZM8.05279 1.11535C8.76604 1.11535 9.46328 1.32685 10.0563 1.72311C10.6494 2.11938 11.1116 2.6826 11.3846 3.34156C11.6575 4.00053 11.7289 4.72563 11.5898 5.42518C11.4506 6.12473 11.1072 6.76731 10.6028 7.27165C10.0985 7.776 9.45589 8.11947 8.75634 8.25862C8.05679 8.39777 7.33169 8.32635 6.67273 8.0534C6.01376 7.78045 5.45054 7.31822 5.05428 6.72517C4.65801 6.13212 4.44651 5.43488 4.44651 4.72163C4.4469 3.7653 4.82698 2.84826 5.5032 2.17204C6.17942 1.49581 7.09647 1.11574 8.05279 1.11535ZM11.0769 11.1646C11.1262 11.0251 11.1181 10.8717 11.0544 10.7381C10.9906 10.6046 10.8765 10.5017 10.7371 10.4523C9.5223 10.0239 8.22253 9.89293 6.94674 10.0705C5.67094 10.248 4.45631 10.7288 3.40467 11.4726C2.35303 12.2164 1.49505 13.2015 0.902656 14.3453C0.310262 15.4891 0.000725479 16.7582 0 18.0463C0 18.1942 0.0587545 18.336 0.163338 18.4406C0.267922 18.5452 0.409768 18.604 0.557672 18.604C0.705576 18.604 0.847422 18.5452 0.952006 18.4406C1.05659 18.336 1.11534 18.1942 1.11534 18.0463C1.11559 16.9364 1.38199 15.8428 1.8922 14.8572C2.40242 13.8716 3.14156 13.0227 4.04762 12.3818C4.95368 11.7408 6.00024 11.3265 7.09951 11.1736C8.19877 11.0207 9.31867 11.1336 10.3653 11.5029C10.5045 11.5521 10.6576 11.5441 10.7909 11.4807C10.9243 11.4173 11.0271 11.3036 11.0769 11.1646ZM14.7151 14.1292C14.2698 14.1293 13.8346 14.2615 13.4644 14.509C13.0943 14.7565 12.8058 15.1082 12.6355 15.5196C12.4652 15.931 12.4207 16.3837 12.5077 16.8204C12.5947 17.2571 12.8092 17.6582 13.1241 17.973C13.439 18.2878 13.8402 18.5022 14.2769 18.589C14.7136 18.6758 15.1663 18.6312 15.5776 18.4608C15.989 18.2903 16.3406 18.0017 16.588 17.6315C16.8353 17.2613 16.9674 16.826 16.9674 16.3807C16.967 15.7836 16.7295 15.211 16.3072 14.7888C15.8849 14.3666 15.3123 14.1294 14.7151 14.1292ZM14.7151 17.5169C14.4904 17.5167 14.2708 17.45 14.0841 17.325C13.8974 17.2001 13.7518 17.0226 13.666 16.815C13.5801 16.6074 13.5577 16.3789 13.6016 16.1586C13.6455 15.9382 13.7538 15.7359 13.9127 15.577C14.0717 15.4182 14.2741 15.3101 14.4945 15.2663C14.7149 15.2225 14.9433 15.2451 15.1508 15.3311C15.3584 15.4171 15.5358 15.5627 15.6606 15.7496C15.7854 15.9364 15.852 16.156 15.852 16.3807C15.8518 16.6821 15.732 16.9711 15.5188 17.1841C15.3056 17.3972 15.0165 17.5169 14.7151 17.5169Z" fill="#2DBEFF"/>
<path d="M19.5096 16.6975C19.5236 16.486 19.5236 16.2739 19.5096 16.0625L19.9557 14.9746C20.0073 14.8493 20.0115 14.7095 19.9676 14.5813C19.7343 13.9006 19.3712 13.2716 18.8984 12.7291C18.8092 12.6272 18.6861 12.5611 18.5519 12.5432L17.3845 12.387C17.2083 12.2692 17.0245 12.1631 16.8343 12.0695L16.116 11.1371C16.0332 11.0299 15.9143 10.9564 15.7814 10.9304C15.0753 10.7914 14.3489 10.7914 13.6429 10.9304C13.51 10.9564 13.3911 11.0299 13.3083 11.1371L12.5893 12.0703C12.3989 12.1636 12.2151 12.2697 12.039 12.3878L10.8724 12.5432C10.7381 12.5611 10.615 12.6272 10.5259 12.7291C10.0531 13.2716 9.68996 13.9006 9.45662 14.5813C9.41272 14.7095 9.41695 14.8493 9.46851 14.9746L9.91465 16.064C9.90065 16.2754 9.90065 16.4875 9.91465 16.699L9.46851 17.7868C9.41695 17.9121 9.41272 18.0519 9.45662 18.1801C9.68992 18.8609 10.053 19.4899 10.5259 20.0324C10.615 20.1343 10.7381 20.2004 10.8724 20.2182L12.0398 20.3744C12.216 20.4922 12.3998 20.5983 12.59 20.6919L13.3083 21.6243C13.3911 21.7315 13.51 21.805 13.6429 21.831C14.3489 21.9701 15.0753 21.9701 15.7814 21.831C15.9143 21.805 16.0332 21.7315 16.116 21.6243L16.835 20.6912C17.0253 20.5978 17.2091 20.4917 17.3852 20.3737L18.5519 20.2182C18.6861 20.2004 18.8093 20.1343 18.8984 20.0324C19.372 19.4901 19.7359 18.861 19.9699 18.1801C20.0138 18.0519 20.0095 17.9121 19.958 17.7868L19.5096 16.6975ZM18.192 19.1408L17.1071 19.2895C17.017 19.3016 16.9312 19.3355 16.8573 19.3884C16.6653 19.5248 16.4609 19.6428 16.2468 19.7409C16.164 19.7782 16.0917 19.8354 16.0364 19.9074L15.3672 20.7744C14.9346 20.8391 14.4948 20.8391 14.0622 20.7744L13.393 19.9074C13.3377 19.8354 13.2654 19.7782 13.1826 19.7409C12.9685 19.6428 12.7642 19.5248 12.5721 19.3884C12.4982 19.3355 12.4124 19.3016 12.3223 19.2895L11.2375 19.1408C10.9653 18.7983 10.7453 18.4175 10.5846 18.0106L11.001 16.9979C11.0356 16.9139 11.0491 16.8228 11.0404 16.7324C11.0179 16.498 11.0179 16.262 11.0404 16.0275C11.0491 15.9372 11.0356 15.846 11.001 15.7621L10.5839 14.7501C10.7444 14.3432 10.9644 13.9623 11.2367 13.6199L12.3216 13.4712C12.4117 13.4591 12.4975 13.4252 12.5714 13.3723C12.7634 13.2359 12.9678 13.1179 13.1819 13.0198C13.2647 12.9825 13.337 12.9253 13.3923 12.8533L14.0615 11.9863C14.4941 11.9215 14.9339 11.9215 15.3665 11.9863L16.0357 12.8533C16.091 12.9253 16.1633 12.9825 16.2461 13.0198C16.4602 13.1179 16.6645 13.2359 16.8566 13.3723C16.9305 13.4252 17.0163 13.4591 17.1064 13.4712L18.1913 13.6199C18.4634 13.9624 18.6834 14.3432 18.8441 14.7501L18.4277 15.7628C18.3931 15.8468 18.3796 15.9379 18.3883 16.0283C18.4108 16.2627 18.4108 16.4987 18.3883 16.7332C18.3796 16.8235 18.3931 16.9147 18.4277 16.9986L18.8448 18.0106C18.6843 18.4175 18.4643 18.7984 18.192 19.1408Z" fill="#2DBEFF"/>
</svg>
