<svg width="30" height="30" viewBox="0 0 30 30" fill="none" xmlns="http://www.w3.org/2000/svg">
<g clip-path="url(#clip0_137_14)">
<path d="M18.9685 1.75571C19.0267 1.77288 19.085 1.79004 19.145 1.80773C19.6029 1.95744 19.9815 2.13771 20.1982 2.47541C20.2666 2.60859 20.3274 2.741 20.381 2.87766C20.3988 2.92188 20.3988 2.92188 20.417 2.96699C20.4534 3.08986 20.4584 3.2033 20.4602 3.329C20.4611 3.38015 20.4619 3.4313 20.4628 3.484C20.4636 3.56662 20.4636 3.56662 20.4643 3.65091C20.4649 3.70794 20.4654 3.76498 20.466 3.82374C20.4669 3.94454 20.4676 4.06534 20.4682 4.18614C20.4693 4.36985 20.4723 4.55352 20.4752 4.73723C20.4759 4.8548 20.4765 4.97237 20.4769 5.08993C20.4781 5.14442 20.4793 5.19891 20.4805 5.25505C20.4788 5.7184 20.3207 6.12354 19.9102 6.48742C19.2846 6.91632 18.5167 7.00248 17.6905 7.07278C17.166 7.11948 16.7003 7.17203 16.2106 7.31669C16.1218 7.31669 16.0331 7.31669 15.9416 7.31669C16.0741 7.4882 16.214 7.62392 16.4061 7.76238C16.4561 7.79857 16.5062 7.83476 16.5577 7.87204C16.6097 7.90911 16.6616 7.94618 16.7151 7.98437C16.7671 8.022 16.819 8.05964 16.8725 8.09841C17.1631 8.30802 17.1631 8.30802 17.4887 8.48742C17.4887 8.51961 17.4887 8.55181 17.4887 8.58498C17.5552 8.60108 17.6218 8.61717 17.6905 8.63376C17.8054 8.71291 17.9172 8.79456 18.0268 8.87766C18.1391 8.95806 18.2515 9.0384 18.3639 9.11871C18.4587 9.18679 18.5535 9.25488 18.6483 9.32301C18.7134 9.36978 18.7787 9.41647 18.8441 9.46306C18.9394 9.53097 19.0342 9.59923 19.129 9.66749C19.1854 9.70783 19.2417 9.74817 19.2997 9.78974C19.566 10.004 19.6083 10.1758 19.5991 10.4583C19.5493 10.7084 19.3759 10.887 19.1175 11.0518C18.7404 11.255 18.4182 11.308 17.9595 11.2679C17.6079 11.1404 17.3548 10.9345 17.0851 10.7313C17.008 10.6754 16.9309 10.6195 16.8538 10.5636C16.7325 10.4756 16.6114 10.3875 16.4904 10.2993C16.2258 10.1066 15.961 9.91396 15.6962 9.72141C15.5819 9.63828 15.4677 9.55511 15.3535 9.47189C15.1886 9.3517 15.0234 9.23166 14.8582 9.11166C14.807 9.07426 14.7558 9.03686 14.703 8.99834C14.6557 8.96397 14.6083 8.9296 14.5594 8.89419C14.5177 8.86384 14.476 8.83349 14.4331 8.80221C14.3303 8.72677 14.3303 8.72677 14.1927 8.68254C14.1828 8.73847 14.1828 8.73847 14.1727 8.79554C14.1167 9.0866 14.043 9.35478 13.9152 9.63376C13.4717 10.7938 13.7425 12.1687 14.5382 13.2117C14.891 13.6446 15.3726 13.9954 15.8472 14.3582C16.0029 14.4784 16.1567 14.5996 16.3071 14.7233C16.3403 14.7506 16.3736 14.7779 16.4078 14.8061C16.4797 14.8777 16.4797 14.8777 16.4797 14.9752C16.5199 14.9873 16.5602 14.9994 16.6016 15.0118C16.77 15.0816 16.8483 15.1493 16.9505 15.2679C16.9505 15.3001 16.9505 15.3323 16.9505 15.3655C17.0171 15.3816 17.0837 15.3977 17.1523 15.4142C17.276 15.5294 17.3897 15.6437 17.5013 15.7649C17.5504 15.8177 17.5504 15.8177 17.6005 15.8716C18.0608 16.3719 18.4502 16.8772 18.7449 17.44C18.8039 17.5522 18.8674 17.6633 18.9354 17.7729C19.2399 18.3129 19.3838 18.9081 19.4483 19.4875C19.4566 19.5617 19.4566 19.5617 19.4651 19.6374C19.5354 20.3435 19.5275 21.0516 19.5269 21.7591C19.5268 21.9225 19.5271 22.0859 19.5275 22.2494C19.5282 22.635 19.5282 23.0207 19.5278 23.4063C19.5274 23.8019 19.5283 24.1975 19.5297 24.5931C19.5309 24.9355 19.5313 25.278 19.5311 25.6205C19.5309 25.8238 19.5311 26.0272 19.532 26.2305C19.5329 26.4213 19.5328 26.6122 19.5319 26.803C19.5317 26.8724 19.5319 26.9418 19.5325 27.0112C19.5388 27.851 19.3503 28.5801 18.5368 29.2033C17.4677 29.9012 16.1323 29.9656 14.7713 29.965C14.64 29.9653 14.5088 29.9656 14.3776 29.966C14.0227 29.9669 13.6679 29.9671 13.313 29.9672C13.0907 29.9672 12.8684 29.9674 12.6461 29.9677C11.8688 29.9686 11.0914 29.969 10.314 29.9689C9.5924 29.9689 8.87077 29.9699 8.14912 29.9714C7.52723 29.9727 6.90534 29.9732 6.28345 29.9732C5.91306 29.9731 5.54269 29.9734 5.17231 29.9744C4.82337 29.9754 4.47445 29.9754 4.12551 29.9747C3.99848 29.9746 3.87146 29.9748 3.74444 29.9754C2.48439 29.9809 1.04364 29.9054 0.0671306 29.2527C-0.645732 28.6691 -0.770299 28.0708 -0.766155 27.3235C-0.766429 27.2404 -0.766789 27.1574 -0.767227 27.0743C-0.768144 26.8495 -0.767792 26.6247 -0.767151 26.3999C-0.766638 26.1635 -0.767114 25.9272 -0.76743 25.6908C-0.767797 25.2933 -0.767315 24.8958 -0.766352 24.4984C-0.765258 24.0412 -0.765608 23.584 -0.766722 23.1269C-0.767643 22.7327 -0.767762 22.3385 -0.767237 21.9443C-0.766925 21.7096 -0.766873 21.475 -0.767547 21.2403C-0.773325 18.9065 -0.773325 18.9065 -0.201928 17.8045C-0.178045 17.7582 -0.178045 17.7582 -0.15368 17.7109C0.302344 16.85 0.995706 16.0666 1.81601 15.3655C1.85076 15.3356 1.88551 15.3058 1.92131 15.2751C2.12326 15.1022 2.32677 14.9304 2.53221 14.7597C2.6262 14.68 2.7162 14.5983 2.80659 14.5164C2.85705 14.4746 2.90751 14.4329 2.95951 14.3899C3.0039 14.3899 3.0483 14.3899 3.09404 14.3899C3.1099 14.3621 3.12577 14.3344 3.14212 14.3058C3.24803 14.1697 3.37752 14.0846 3.53546 13.9783C4.4619 13.3181 4.87177 12.569 5.11197 11.6581C5.12524 11.6109 5.13851 11.5637 5.15217 11.515C5.24665 10.9929 5.24639 10.4094 5.04471 9.90205C5.0239 9.83839 5.0239 9.83839 5.00267 9.77343C4.90706 9.50357 4.8147 9.35146 4.50659 9.17035C4.32489 9.12605 4.16288 9.09316 3.97688 9.06669C3.13157 8.93806 2.58727 8.69451 2.10031 8.16577C1.88093 7.85366 1.85936 7.55253 1.86225 7.20998C1.86268 7.14185 1.86268 7.14185 1.86311 7.07234C1.8751 6.54101 2.06557 6.09389 2.35413 5.60937C2.37251 5.57453 2.39089 5.5397 2.40983 5.50381C2.66603 5.03931 3.10601 4.61408 3.56489 4.24352C3.60928 4.24352 3.65368 4.24352 3.69942 4.24352C3.72162 4.19522 3.74381 4.14693 3.76668 4.09717C4.40513 3.66358 5.14084 3.3097 5.91915 3.024C5.96105 3.00858 6.00295 2.99316 6.04612 2.97727C7.37182 2.49402 8.76507 2.20611 10.253 2.15891C10.7201 2.14209 11.1842 2.1 11.6488 2.06276C12.1231 2.02475 12.5975 1.98803 13.0723 1.9535C13.2916 1.93744 13.5109 1.9213 13.7302 1.9051C13.8123 1.89905 13.8123 1.89905 13.8961 1.89288C14.5823 1.84187 15.2612 1.77835 15.9416 1.69474C16.9122 1.57797 18.0354 1.47109 18.9685 1.75571Z" fill="#020202"/>
<path d="M1.61481 20.9268C6.7202 20.9268 11.8256 20.9268 17.0857 20.9268C17.0912 22.0053 17.0968 23.0838 17.1025 24.1951C17.1049 24.5353 17.1074 24.8755 17.1099 25.2261C17.1111 25.6424 17.1111 25.6424 17.1113 25.8374C17.1116 25.9733 17.1126 26.1091 17.1141 26.245C17.1159 26.4186 17.1165 26.5922 17.1161 26.7659C17.1162 26.8592 17.1176 26.9526 17.1191 27.046C17.1169 27.3876 17.0723 27.6126 16.8166 27.9024C16.4334 28.173 16.0479 28.2658 15.5211 28.2627C15.4662 28.263 15.4113 28.2633 15.3547 28.2635C15.1713 28.2642 14.9879 28.2639 14.8045 28.2635C14.6728 28.2638 14.541 28.2642 14.4093 28.2646C14.0519 28.2654 13.6944 28.2654 13.337 28.2651C13.0384 28.2649 12.7399 28.2652 12.4413 28.2655C11.7369 28.2662 11.0325 28.2661 10.3281 28.2656C9.60175 28.265 8.87542 28.2657 8.14907 28.267C7.52514 28.2681 6.90121 28.2684 6.27728 28.2681C5.90477 28.268 5.53227 28.2681 5.15977 28.2689C4.80939 28.2697 4.45905 28.2695 4.10868 28.2686C3.98026 28.2684 3.85184 28.2685 3.72342 28.2691C3.54775 28.2697 3.37217 28.2691 3.1965 28.2683C3.146 28.2687 3.0955 28.2692 3.04347 28.2697C2.61565 28.2654 2.28649 28.1593 1.9472 27.9725C1.64031 27.7405 1.60633 27.5986 1.60673 27.2856C1.60663 27.2296 1.60654 27.1736 1.60645 27.116C1.60669 27.0545 1.60693 26.9931 1.60718 26.9298C1.6072 26.8633 1.60719 26.7969 1.60715 26.7304C1.60714 26.5526 1.60753 26.3747 1.608 26.1968C1.60839 26.0299 1.6084 25.863 1.60845 25.696C1.6088 25.2079 1.60974 24.7198 1.61061 24.2316C1.612 23.141 1.61339 22.0504 1.61481 20.9268Z" fill="#FDFDFD"/>
<path d="M7.46651 11.9023C8.82055 11.9023 10.1746 11.9023 11.5697 11.9023C11.6362 12.4094 11.6362 12.4094 11.7042 12.9267C11.8298 13.1848 11.9485 13.4149 12.1078 13.6584C12.1298 13.7 12.1518 13.7416 12.1745 13.7844C12.5323 14.4068 13.2387 14.9238 13.8566 15.4145C14.0106 15.5393 14.1643 15.6641 14.318 15.789C14.4174 15.8672 14.5196 15.9434 14.6241 16.018C15.5829 16.7238 16.251 17.5526 16.6818 18.4877C16.7046 18.5332 16.7274 18.5786 16.7509 18.6255C16.8484 18.8226 16.8836 18.957 16.8836 19.1706C11.8892 19.1706 6.89476 19.1706 1.74902 19.1706C1.97922 18.0021 3.11635 16.882 4.25962 16.0815C4.38082 15.9938 4.49206 15.902 4.60356 15.8078C4.76005 15.6757 4.92182 15.5531 5.09544 15.4328C5.74038 14.9687 6.24208 14.4364 6.65934 13.8536C6.68526 13.8174 6.71119 13.7812 6.7379 13.744C6.8985 13.5001 7.01665 13.2428 7.1386 12.9877C7.16424 12.9354 7.16424 12.9354 7.19039 12.8821C7.34419 12.5504 7.39002 12.2629 7.46651 11.9023Z" fill="#FCFCFC"/>
<path d="M17.9594 3.36608C18.0594 3.51112 18.0354 3.64269 18.0356 3.80435C18.0357 3.83816 18.0357 3.87198 18.0358 3.90682C18.0358 3.97849 18.0357 4.05017 18.0354 4.12185C18.0351 4.23083 18.0354 4.3398 18.0359 4.44878C18.0358 4.51852 18.0357 4.58826 18.0356 4.65801C18.0355 4.72125 18.0354 4.78449 18.0354 4.84965C18.0274 5.01023 18.0016 5.15979 17.9594 5.3173C17.5662 5.37865 17.176 5.42681 16.7766 5.46056C15.3484 5.58521 14.0886 6.03174 13.1416 6.8356C12.0546 7.85147 11.6161 8.93327 11.3675 10.1954C10.1022 10.1954 8.83697 10.1954 7.53339 10.1954C7.4668 9.9056 7.4002 9.61584 7.33159 9.3173C7.01647 8.62555 6.57581 8.00194 5.68256 7.62104C5.23995 7.46257 4.77263 7.33286 4.30469 7.21974C4.36757 6.83151 4.44495 6.49007 4.70827 6.14657C4.74001 6.10457 4.77175 6.06256 4.80444 6.01929C5.64224 4.9902 7.19362 4.38837 8.74307 4.07374C9.20736 3.98909 9.6824 3.9461 10.1567 3.90267C10.2609 3.89305 10.2609 3.89305 10.3671 3.88323C10.5926 3.86273 10.8181 3.84289 11.0438 3.8234C11.1132 3.81739 11.1825 3.81138 11.254 3.80518C11.6458 3.77287 12.0367 3.74968 12.4303 3.73384C12.9768 3.71144 13.5159 3.66317 14.0581 3.60999C14.6525 3.55168 15.2426 3.5037 15.8418 3.47967C16.1558 3.46695 16.4627 3.4443 16.7739 3.41182C17.1725 3.37333 17.5577 3.35348 17.9594 3.36608Z" fill="#FCFCFC"/>
<path d="M25.9184 3.49774C25.9898 3.49712 26.0612 3.4965 26.1348 3.49586C26.25 3.49569 26.25 3.49569 26.3675 3.49553C26.4468 3.4952 26.526 3.49488 26.6077 3.49454C26.7754 3.49405 26.9431 3.49382 27.1108 3.49384C27.3671 3.49362 27.6233 3.49185 27.8796 3.49C28.0426 3.48971 28.2056 3.48952 28.3686 3.48943C28.4451 3.48873 28.5216 3.48803 28.6005 3.4873C29.0231 3.48907 29.2755 3.50173 29.5967 3.70704C29.6605 3.74728 29.7243 3.78752 29.7901 3.82899C29.9911 4.01442 29.9757 4.21596 29.9606 4.44332C29.9138 4.68392 29.8179 4.82969 29.5575 4.99353C29.1586 5.195 28.8158 5.20411 28.3394 5.1977C28.2652 5.19759 28.1909 5.19747 28.1144 5.19735C27.9581 5.19688 27.8018 5.19582 27.6455 5.19421C27.4069 5.1918 27.1685 5.19121 26.9299 5.19093C26.7775 5.19025 26.6252 5.18946 26.4728 5.18855C26.4019 5.18829 26.331 5.18803 26.2579 5.18776C25.395 5.1777 25.395 5.1777 25.0311 4.95399C24.7629 4.71943 24.7867 4.46605 24.7883 4.17217C24.8313 3.94494 24.9413 3.83803 25.1625 3.68036C25.4147 3.54209 25.6016 3.49962 25.9184 3.49774Z" fill="#020202"/>
<path d="M26.6045 0.0538888C26.8592 0.165364 27.0165 0.266096 27.1789 0.448134C27.2755 0.733136 27.3435 1.01171 27.1679 1.28674C26.9872 1.47699 26.8117 1.59649 26.5039 1.67317C26.3373 1.71484 26.1822 1.76862 26.0228 1.82313C25.6647 1.942 25.3002 2.04511 24.9316 2.14554C24.7582 2.19126 24.7582 2.19126 24.6187 2.24387C24.4885 2.24986 24.3581 2.25243 24.2277 2.25301C24.123 2.25405 24.123 2.25405 24.0162 2.25511C23.6867 2.23701 23.523 2.18261 23.2944 2.00911C23.0486 1.7634 22.9824 1.59617 23.0127 1.29265C23.017 1.23882 23.0214 1.18499 23.0258 1.12954C23.0903 0.912348 23.2241 0.789159 23.4762 0.664788C23.9185 0.511684 24.3711 0.38567 24.8315 0.264636C25.0422 0.208922 25.2462 0.145549 25.451 0.0792318C25.8441 -0.0334579 26.2088 -0.0718315 26.6045 0.0538888Z" fill="#050505"/>
<path d="M25.2493 6.67645C25.4721 6.73559 25.6852 6.80154 25.8973 6.87844C25.8973 6.91063 25.8973 6.94283 25.8973 6.976C25.9714 6.99505 25.9714 6.99505 26.0471 7.01449C26.6466 7.20434 27.0734 7.61734 27.3098 8.04917C27.3768 8.32708 27.3802 8.54611 27.1837 8.79307C27.0408 8.87844 27.0408 8.87844 26.9063 8.87844C26.9063 8.91063 26.9063 8.94283 26.9063 8.976C26.2889 9.12523 25.7413 9.00999 25.1708 8.81517C24.5022 8.55705 23.8052 8.10648 23.5693 7.56479C23.5108 7.33991 23.4596 7.08863 23.6134 6.88091C24.0103 6.53128 24.6842 6.57186 25.2493 6.67645Z" fill="#060606"/>
<path d="M19.0362 28.6826C19.0806 28.6987 19.125 28.7148 19.1707 28.7314C19.1485 28.7797 19.1263 28.828 19.1035 28.8777C19.0591 28.8777 19.0147 28.8777 18.9689 28.8777C18.9689 28.926 18.9689 28.9743 18.9689 29.0241C18.8821 29.0911 18.7923 29.1562 18.6999 29.2192C18.6777 29.2514 18.6555 29.2836 18.6326 29.3168C18.4939 29.3716 18.4939 29.3716 18.3635 29.4143C18.3635 29.4465 18.3635 29.4787 18.3635 29.5119C18.2304 29.5119 18.0972 29.5119 17.96 29.5119C18.1186 29.3922 18.283 29.2842 18.4602 29.1796C18.7007 29.0326 18.8634 28.8725 19.0362 28.6826Z" fill="#DCDCDC"/>
<path d="M4.64116 15.7559C4.66336 15.8202 4.68555 15.8846 4.70842 15.951C4.61062 16.0038 4.61062 16.0038 4.51083 16.0577C4.35198 16.1526 4.30927 16.1846 4.24598 16.3321C4.24321 16.3673 4.24043 16.4025 4.23757 16.4388C4.17098 16.4549 4.10439 16.471 4.03578 16.4876C3.96919 16.4554 3.90259 16.4232 3.83398 16.39C3.86971 16.3647 3.90543 16.3393 3.94224 16.3132C4.19119 16.135 4.43073 15.9593 4.64116 15.7559Z" fill="#D0D0D0"/>
<path d="M4.23784 3.80469C4.28223 3.82079 4.32663 3.83688 4.37237 3.85347C4.32381 3.88768 4.27525 3.92188 4.22523 3.95713C4.09333 4.0517 3.9775 4.14978 3.86368 4.25591C3.65482 4.42679 3.65482 4.42679 3.43066 4.43883C3.47506 4.37444 3.51945 4.31005 3.56519 4.24371C3.60959 4.24371 3.65398 4.24371 3.69972 4.24371C3.72192 4.19542 3.74412 4.14713 3.76699 4.09737C3.87655 4.01905 3.87655 4.01905 4.00662 3.94188C4.04971 3.91604 4.0928 3.89019 4.1372 3.86357C4.17041 3.84414 4.20362 3.82471 4.23784 3.80469Z" fill="#262626"/>
<path d="M3.02687 16.8779C3.09346 16.894 3.16005 16.9101 3.22866 16.9267C3.17587 16.999 3.12251 17.0712 3.06891 17.1432C3.03926 17.1834 3.0096 17.2235 2.97905 17.2649C2.89234 17.3657 2.89234 17.3657 2.75781 17.4145C2.76891 17.3773 2.78001 17.3401 2.79144 17.3017C2.83123 17.1689 2.83123 17.1689 2.82508 17.0243C2.89167 17.0082 2.95826 16.9921 3.02687 16.9755C3.02687 16.9433 3.02687 16.9111 3.02687 16.8779Z" fill="#0F0F0F"/>
<path d="M6.52456 8.14648C6.89932 8.39736 6.89932 8.39736 6.92815 8.58551C6.86156 8.58551 6.79496 8.58551 6.72635 8.58551C6.70416 8.55331 6.68196 8.52112 6.65909 8.48795C6.61469 8.48795 6.5703 8.48795 6.52456 8.48795C6.46172 8.3411 6.4543 8.29934 6.52456 8.14648Z" fill="#282828"/>
<path d="M16.8834 27.4639C16.9278 27.48 16.9722 27.4961 17.018 27.5126C16.9003 27.7931 16.9003 27.7931 16.7489 27.9029C16.7027 27.7931 16.7027 27.7931 16.6816 27.659C16.7783 27.5462 16.7783 27.5462 16.8834 27.4639Z" fill="#EDEDED"/>
<path d="M19.4395 10.6826C19.4839 10.747 19.5283 10.8114 19.574 10.8777C19.4395 10.9753 19.305 11.0729 19.1704 11.1704C19.0275 11.1521 19.0275 11.1521 18.9014 11.1216C18.9971 11.0673 18.9971 11.0673 19.0948 11.0119C19.2596 10.9129 19.3637 10.831 19.4395 10.6826Z" fill="#D5D5D5"/>
<path d="M2.4214 8.14648C2.53886 8.27426 2.58198 8.34347 2.6232 8.48795C2.5566 8.48795 2.49001 8.48795 2.4214 8.48795C2.27426 8.34161 2.27426 8.34161 2.15234 8.19526C2.24113 8.17917 2.32992 8.16307 2.4214 8.14648Z" fill="#121212"/>
<path d="M13.5204 15.2197C13.6536 15.3002 13.7868 15.3807 13.924 15.4636C13.7908 15.5119 13.7908 15.5119 13.6549 15.5612C13.5498 15.5002 13.5498 15.5002 13.4531 15.4148C13.4741 15.3081 13.4741 15.3081 13.5204 15.2197Z" fill="#D6D6D6"/>
<path d="M16.8837 10.4395C16.9281 10.4395 16.9725 10.4395 17.0182 10.4395C17.1653 10.5523 17.1653 10.5523 17.2873 10.6834C17.2651 10.7316 17.2429 10.7799 17.22 10.8297C16.8921 10.6529 16.8921 10.6529 16.8164 10.4882C16.8386 10.4721 16.8608 10.456 16.8837 10.4395Z" fill="#1C1C1C"/>
<path d="M23.0713 1.6582C23.2016 1.67345 23.2016 1.67345 23.3403 1.70698C23.3625 1.75528 23.3847 1.80357 23.4076 1.85333C23.452 1.88552 23.4964 1.91772 23.5421 1.95089C23.4977 1.95089 23.4534 1.95089 23.4076 1.95089C23.3854 1.98308 23.3632 2.01528 23.3403 2.04845C23.0713 1.76796 23.0713 1.76796 23.0713 1.6582Z" fill="#111111"/>
<path d="M0.269058 17.0244C0.313453 17.0888 0.357848 17.1532 0.403587 17.2195C0.371679 17.2497 0.33977 17.2799 0.306895 17.311C0.200168 17.4101 0.200168 17.4101 0.134529 17.5122C0.0901345 17.5122 0.0457399 17.5122 0 17.5122C0.0746238 17.3421 0.152245 17.1817 0.269058 17.0244Z" fill="#393939"/>
<path d="M4.23757 16.2441C4.25977 16.2924 4.28197 16.3407 4.30484 16.3905C4.17165 16.4388 4.17165 16.4388 4.03578 16.488C3.96919 16.4558 3.90259 16.4237 3.83398 16.3905C4.01055 16.2441 4.01055 16.2441 4.23757 16.2441Z" fill="#E0E0E0"/>
<path d="M14.5966 16.0488C14.9245 16.2257 14.9245 16.2257 15.0001 16.3903C14.8404 16.3811 14.8404 16.3811 14.6638 16.3415C14.5755 16.2165 14.5755 16.2165 14.5293 16.0976C14.5515 16.0815 14.5737 16.0654 14.5966 16.0488Z" fill="#D8D8D8"/>
<path d="M5.17898 15.2686C5.22337 15.2847 5.26777 15.3007 5.31351 15.3173C5.15813 15.43 5.00274 15.5427 4.84266 15.6588C4.82046 15.6105 4.79826 15.5622 4.77539 15.5125C4.86942 15.3761 4.99487 15.3369 5.17898 15.2686Z" fill="#151515"/>
<path d="M25.4259 3.56055C25.4703 3.57664 25.5147 3.59274 25.5605 3.60933C25.3716 3.75391 25.2118 3.87494 24.9551 3.95079C25.0554 3.76566 25.2078 3.67711 25.4259 3.56055Z" fill="#202020"/>
<path d="M0.672497 29.3174C0.761286 29.3496 0.850075 29.3818 0.941555 29.4149C0.941555 29.4471 0.941555 29.4793 0.941555 29.5125C0.819638 29.546 0.819638 29.546 0.672497 29.5613C0.554784 29.4912 0.554784 29.4912 0.470703 29.4149C0.537295 29.3827 0.603887 29.3506 0.672497 29.3174Z" fill="#171717"/>
<path d="M2.42152 17.8535C2.46591 17.8696 2.51031 17.8857 2.55605 17.9023C2.53385 18.015 2.51165 18.1277 2.48878 18.2438C2.44439 18.2116 2.4 18.1794 2.35426 18.1462C2.28766 18.1703 2.28766 18.1703 2.21973 18.195C2.34585 17.9633 2.34585 17.9633 2.42152 17.8535Z" fill="#DFDFDF"/>
<path d="M19.0355 10.7803C19.0799 10.8447 19.1243 10.9091 19.1701 10.9754C19.0813 11.0398 18.9925 11.1042 18.901 11.1705C18.8344 11.1544 18.7678 11.1383 18.6992 11.1217C18.7637 11.078 18.7637 11.078 18.8295 11.0333C18.9819 10.9311 18.9819 10.9311 19.0355 10.7803Z" fill="#121212"/>
<path d="M16.3456 10.0488C16.39 10.0488 16.4344 10.0488 16.4801 10.0488C16.6273 10.1616 16.6273 10.1616 16.7492 10.2927C16.727 10.341 16.7048 10.3893 16.6819 10.4391C16.5487 10.3264 16.4155 10.2137 16.2783 10.0976C16.3005 10.0815 16.3227 10.0654 16.3456 10.0488Z" fill="#101010"/>
<path d="M15.8075 9.6582C15.8519 9.6582 15.8963 9.6582 15.942 9.6582C16.0892 9.77101 16.0892 9.77101 16.2111 9.90211C16.1889 9.9504 16.1667 9.99869 16.1438 10.0484C16.0106 9.93576 15.8775 9.82308 15.7402 9.70698C15.7624 9.69089 15.7846 9.67479 15.8075 9.6582Z" fill="#101010"/>
<path d="M17.6903 8.73145C17.9099 8.81945 18.0192 8.86969 18.1612 9.02413C17.9299 8.98449 17.9299 8.98449 17.6903 8.92657C17.6681 8.87827 17.6459 8.82998 17.623 8.78023C17.6452 8.76413 17.6674 8.74803 17.6903 8.73145Z" fill="#272727"/>
<path d="M16.2777 7.21973C16.3665 7.21973 16.4553 7.21973 16.5468 7.21973C16.5246 7.28412 16.5024 7.34851 16.4795 7.41485C16.3019 7.39875 16.1244 7.38265 15.9414 7.36607C15.9844 7.35098 16.0274 7.33589 16.0717 7.32034C16.2062 7.27658 16.2062 7.27658 16.2777 7.21973Z" fill="#DCDCDC"/>
<path d="M3.76699 16.4395C3.83425 16.5858 3.83425 16.5858 3.75017 16.7169C3.71133 16.7541 3.67248 16.7913 3.63246 16.8297C3.56587 16.8297 3.49927 16.8297 3.43066 16.8297C3.52292 16.6856 3.63169 16.5643 3.76699 16.4395Z" fill="#C3C3C3"/>
<path d="M3.22866 14.1953C3.25086 14.2275 3.27306 14.2597 3.29593 14.2929C3.16275 14.4056 3.02956 14.5182 2.89234 14.6343C2.84795 14.6182 2.80355 14.6021 2.75781 14.5856C2.8503 14.488 2.8503 14.488 2.95961 14.3904C3.004 14.3904 3.0484 14.3904 3.09414 14.3904C3.13853 14.326 3.18292 14.2617 3.22866 14.1953Z" fill="#2E2E2E"/>
<path d="M5.58289 7.56055C5.81596 7.65713 5.81596 7.65713 6.05374 7.75567C5.98715 7.78786 5.92056 7.82006 5.85195 7.85323C5.78536 7.82103 5.71876 7.78884 5.65015 7.75567C5.58356 7.77982 5.58356 7.77982 5.51562 7.80445C5.53782 7.72396 5.56002 7.64347 5.58289 7.56055Z" fill="#181818"/>
<path d="M4.5066 6.14648C4.55099 6.19478 4.59539 6.24307 4.64113 6.29283C4.58227 6.44831 4.58227 6.44831 4.5066 6.58551C4.4622 6.55331 4.41781 6.52112 4.37207 6.48795C4.41029 6.21633 4.41029 6.21633 4.5066 6.14648Z" fill="#0E0E0E"/>
<path d="M16.4126 14.585C16.457 14.6654 16.5014 14.7459 16.5471 14.8289C16.4806 14.8289 16.414 14.8289 16.3453 14.8289C16.2318 14.7313 16.2318 14.7313 16.1436 14.6337C16.2781 14.585 16.2781 14.585 16.4126 14.585Z" fill="#D8D8D8"/>
<path d="M13.1165 6.8291C13.1609 6.87739 13.2053 6.92569 13.251 6.97544C13.0512 7.09617 13.0512 7.09617 12.8474 7.21935C12.803 7.20325 12.7586 7.18715 12.7129 7.17056C12.8461 7.05788 12.9793 6.9452 13.1165 6.8291Z" fill="#2F2F2F"/>
<path d="M2.35426 5.31738C2.39865 5.33348 2.44304 5.34958 2.48878 5.36616C2.46659 5.44665 2.44439 5.52714 2.42152 5.61007C2.35493 5.61007 2.28834 5.61007 2.21973 5.61007C2.25377 5.50427 2.28698 5.41496 2.35426 5.31738Z" fill="#D4D4D4"/>
<path d="M29.5292 3.70703C29.6402 3.77142 29.7512 3.83581 29.8655 3.90215C29.7982 3.99971 29.7982 3.99971 29.6637 4.04849C29.5971 3.95191 29.5305 3.85532 29.4619 3.75581C29.4841 3.73971 29.5063 3.72362 29.5292 3.70703Z" fill="#1A1A1A"/>
</g>
<defs>
<clipPath id="clip0_137_14">
<rect width="30" height="30" fill="white"/>
</clipPath>
</defs>
</svg>
