<svg width="28" height="29" viewBox="0 0 28 29" fill="none" xmlns="http://www.w3.org/2000/svg">
<path d="M18.9158 0.0023817C20.602 -0.0427848 22.2387 0.556205 23.5154 1.64987C23.5629 1.68885 23.6104 1.72782 23.6593 1.76798C24.5138 2.49459 25.1044 3.45048 25.5002 4.49167C25.5163 4.53326 25.5324 4.57486 25.5489 4.61771C25.8222 5.37991 25.8853 6.14811 25.8763 6.94895C25.8759 7.03694 25.8757 7.12493 25.8755 7.21292C25.8749 7.44102 25.8731 7.6691 25.8712 7.89719C25.8694 8.13134 25.8686 8.36549 25.8677 8.59964C25.8658 9.0565 25.8628 9.51334 25.8591 9.97019C25.9207 9.96414 25.9824 9.9581 26.0459 9.95188C26.2693 9.97019 26.2693 9.97019 26.4276 10.0935C26.5906 10.2988 26.598 10.3922 26.5957 10.6514C26.5958 10.6896 26.5959 10.7279 26.596 10.7673C26.5959 10.895 26.5937 11.0226 26.5916 11.1503C26.5911 11.242 26.5908 11.3338 26.5906 11.4255C26.5899 11.623 26.5884 11.8205 26.5862 12.0179C26.5828 12.3307 26.5819 12.6435 26.5815 12.9564C26.58 13.8459 26.5752 14.7354 26.5677 15.6249C26.5636 16.1163 26.5616 16.6076 26.5618 17.099C26.5619 17.4094 26.5593 17.7196 26.5547 18.03C26.5525 18.2241 26.5528 18.4181 26.5537 18.6122C26.5536 18.7015 26.5526 18.7907 26.5504 18.88C26.5363 19.4883 26.6649 19.8528 27.0662 20.3011C27.2366 20.4919 27.354 20.6865 27.4631 20.9162C27.4819 20.9555 27.5007 20.9948 27.52 21.0353C28.0113 22.1058 28.1123 23.4229 27.7451 24.55C27.7221 24.6113 27.6992 24.6726 27.6755 24.7358C27.655 24.7959 27.6344 24.8561 27.6133 24.918C27.1783 26.0838 26.2507 27.0004 25.153 27.5548C24.6077 27.8035 24.0071 27.965 23.4084 27.9671C23.3689 27.9673 23.3295 27.9675 23.2888 27.9677C23.1569 27.9684 23.025 27.9686 22.8932 27.9688C22.7984 27.9692 22.7037 27.9696 22.609 27.97C22.2984 27.9712 21.9878 27.9718 21.6772 27.9724C21.5702 27.9727 21.4632 27.9729 21.3561 27.9732C20.8535 27.9743 20.3509 27.9751 19.8482 27.9756C19.2682 27.9762 18.6882 27.9777 18.1082 27.9801C17.6596 27.9818 17.2111 27.9827 16.7625 27.9829C16.4947 27.983 16.2269 27.9836 15.959 27.985C15.7072 27.9864 15.4553 27.9867 15.2035 27.986C15.1111 27.986 15.0187 27.9864 14.9264 27.9872C14.8001 27.9882 14.674 27.9878 14.5477 27.987C14.4771 27.9872 14.4065 27.9873 14.3338 27.9875C13.9434 27.9289 13.7198 27.6733 13.4958 27.3725C13.443 27.2141 13.4297 27.1223 13.429 26.9596C13.4287 26.9114 13.4283 26.8633 13.428 26.8136C13.4279 26.7346 13.4279 26.7346 13.4278 26.654C13.4275 26.5983 13.4272 26.5426 13.4269 26.4853C13.4261 26.3003 13.4257 26.1153 13.4253 25.9303C13.425 25.801 13.4247 25.6717 13.4243 25.5423C13.4237 25.2702 13.4234 24.998 13.4232 24.7259C13.4228 24.3807 13.4214 24.0355 13.4198 23.6904C13.4187 23.4225 13.4184 23.1546 13.4183 22.8866C13.4181 22.7597 13.4176 22.6327 13.4169 22.5057C13.4108 21.4457 13.4581 20.368 13.7778 19.3488C13.8006 19.2732 13.8006 19.2732 13.8239 19.196C14.1671 18.0819 14.6712 17.0562 15.3708 16.1225C15.4089 16.0713 15.447 16.0201 15.4862 15.9673C16.9687 14.0686 19.1833 12.6813 21.5818 12.3139C21.6591 12.3139 21.7365 12.3139 21.8161 12.3139C21.8152 12.253 21.8143 12.1921 21.8134 12.1294C21.8102 11.9031 21.8081 11.6769 21.8065 11.4506C21.8056 11.3528 21.8044 11.2549 21.8029 11.157C21.8007 11.0162 21.7998 10.8755 21.799 10.7347C21.7981 10.691 21.7972 10.6474 21.7962 10.6024C21.7962 10.4283 21.8084 10.2829 21.8721 10.1202C22.0646 9.97331 22.2829 9.9801 22.5193 9.97019C22.5157 9.5163 22.5111 9.06242 22.5055 8.60855C22.5029 8.39773 22.5005 8.18692 22.499 7.97608C22.4974 7.77205 22.495 7.56805 22.4921 7.36403C22.4907 7.24955 22.4901 7.13506 22.4895 7.02058C22.4734 6.02414 22.1835 5.13728 21.4792 4.41042C20.7138 3.69147 19.8455 3.41478 18.8082 3.44591C17.9228 3.49597 17.1439 3.94642 16.5427 4.57956C16.0074 5.20722 15.7598 6.02061 15.496 6.78962C15.4149 7.02589 15.3326 7.26174 15.2502 7.49758C15.2232 7.57483 15.2232 7.57483 15.1957 7.65366C14.9541 8.34271 14.7022 9.02802 14.4516 9.71384C14.066 10.7701 13.6856 11.828 13.3127 12.8889C12.9686 13.868 12.6212 14.8459 12.269 15.8222C12.2473 15.8824 12.2256 15.9425 12.2033 16.0044C12.1152 16.2486 12.0271 16.4928 11.939 16.7369C11.6405 17.5643 11.344 18.3924 11.0474 19.2204C11.0013 19.3492 10.9551 19.478 10.909 19.6068C10.8861 19.6708 10.8631 19.7349 10.8395 19.8009C10.69 20.218 10.5402 20.6351 10.3902 21.0521C10.2869 21.3392 10.1837 21.6264 10.0805 21.9136C10.0311 22.0507 9.98177 22.1879 9.93235 22.325C9.86388 22.515 9.79557 22.7051 9.72729 22.8951C9.69697 22.9791 9.69697 22.9791 9.66605 23.0647C9.44559 23.5752 9.44559 23.5752 9.45767 24.097C9.49113 24.1543 9.52459 24.2117 9.55906 24.2707C9.69707 24.5111 9.7648 24.6965 9.80442 24.9702C9.86201 24.9693 9.9196 24.9683 9.97893 24.9674C10.1948 24.9642 10.4107 24.9622 10.6266 24.9605C10.7196 24.9597 10.8127 24.9585 10.9057 24.9569C12.0658 24.9383 12.0658 24.9383 12.4924 25.2815C12.7359 25.5895 12.8198 25.8504 12.8181 26.2396C12.8184 26.2814 12.8187 26.3233 12.819 26.3664C12.8194 26.4544 12.8193 26.5423 12.8188 26.6303C12.8183 26.7647 12.82 26.8989 12.8219 27.0333C12.822 27.1191 12.8219 27.2048 12.8218 27.2906C12.8228 27.3506 12.8228 27.3506 12.8238 27.4117C12.8209 27.6094 12.8055 27.7079 12.681 27.8647C12.4492 28.0418 12.2526 28.0256 11.9708 28.0253C11.9216 28.0255 11.8724 28.0256 11.8217 28.0258C11.656 28.0263 11.4902 28.0264 11.3245 28.0265C11.206 28.0268 11.0876 28.0271 10.9691 28.0274C10.6466 28.0282 10.3241 28.0285 10.0016 28.0288C9.80021 28.029 9.59886 28.0292 9.39752 28.0295C8.76796 28.0303 8.13841 28.0308 7.50885 28.0311C6.78135 28.0313 6.05386 28.0323 5.32636 28.034C4.76455 28.0353 4.20275 28.0359 3.64094 28.036C3.30515 28.036 2.96938 28.0364 2.6336 28.0374C2.31777 28.0384 2.00195 28.0385 1.68612 28.038C1.57012 28.038 1.45412 28.0382 1.33812 28.0388C1.1799 28.0395 1.02172 28.0392 0.863506 28.0386C0.794458 28.0393 0.794459 28.0393 0.724016 28.04C0.433497 28.0374 0.228662 27.9921 0.0192661 27.7827C-0.0460629 27.1369 0.0458466 26.5668 0.432627 26.0352C1.00394 25.3739 1.60799 25.0399 2.4802 24.9702C2.68116 24.9631 2.88179 24.9633 3.08285 24.9645C3.13803 24.9645 3.19321 24.9646 3.25005 24.9647C3.42435 24.965 3.59864 24.9658 3.77293 24.9665C3.89191 24.9668 4.01089 24.9671 4.12987 24.9673C4.41983 24.968 4.70978 24.969 4.99973 24.9702C5.00726 24.9341 5.0148 24.898 5.02255 24.8608C5.03271 24.8134 5.04286 24.766 5.05332 24.7171C5.06327 24.6701 5.07322 24.6231 5.08346 24.5747C5.12557 24.4087 5.19337 24.2792 5.28538 24.1352C5.31642 24.0866 5.34747 24.0379 5.37945 23.9878C5.53005 23.7664 5.65483 23.596 5.87864 23.4467C5.93694 23.338 5.93694 23.338 5.97941 23.2079C5.99739 23.1577 6.01537 23.1075 6.03389 23.0557C6.05305 23.0003 6.07222 22.9449 6.09196 22.8878C6.11274 22.8293 6.13351 22.7708 6.15492 22.7105C6.2245 22.5142 6.29325 22.3176 6.36204 22.1211C6.4113 21.9817 6.46062 21.8424 6.51001 21.7031C6.58851 21.4817 6.66698 21.2602 6.74517 21.0387C6.93706 20.495 7.1309 19.9522 7.32609 19.4097C7.34001 19.371 7.35393 19.3324 7.36827 19.2925C7.43892 19.0962 7.5096 18.8999 7.5803 18.7036C7.70947 18.3449 7.8384 17.9861 7.96732 17.6274C8.00983 17.5091 8.05235 17.3908 8.09486 17.2725C8.36241 16.528 8.62937 15.7833 8.89622 15.0385C9.33435 13.8158 9.77344 12.5933 10.2129 11.371C10.5333 10.4799 10.8534 9.58862 11.1726 8.697C11.3542 8.18945 11.5363 7.68206 11.7186 7.17474C11.8499 6.80919 11.9803 6.44337 12.1102 6.07732C12.1941 5.84108 12.2786 5.60505 12.3632 5.36905C12.4021 5.26022 12.4407 5.1513 12.4791 5.04228C12.812 4.09729 13.2055 3.24967 13.8474 2.47019C13.8919 2.41603 13.9364 2.36187 13.9822 2.30608C15.1145 0.995832 16.7681 0.197449 18.4836 0.0202345C18.6277 0.0125821 18.7717 0.00913575 18.9158 0.0023817ZM18.0661 1.06394C18.1608 1.82087 18.1608 1.82087 18.4763 2.47019C18.6132 2.46642 18.7499 2.4584 18.8865 2.44821C18.9614 2.44293 19.0363 2.43764 19.1135 2.43219C19.2886 2.43176 19.2886 2.43176 19.3552 2.353C19.3685 2.25317 19.3783 2.15286 19.3866 2.05248C19.3917 1.99186 19.3968 1.93125 19.402 1.8688C19.4071 1.80501 19.4122 1.74123 19.4175 1.67551C19.4228 1.6115 19.4281 1.54748 19.4336 1.48153C19.4468 1.32282 19.4597 1.16409 19.4724 1.00534C19.3039 1.00375 19.1355 1.00259 18.967 1.00168C18.9197 1.00119 18.8723 1.0007 18.8235 1.00019C18.564 0.999137 18.3217 1.01142 18.0661 1.06394ZM20.4099 1.18112C20.3405 1.65125 20.276 2.11069 20.2927 2.58737C20.4061 2.63658 20.5196 2.68532 20.6333 2.73386C20.7281 2.77464 20.7281 2.77464 20.8249 2.81626C20.9928 2.89062 20.9928 2.89062 21.1716 2.88034C21.252 2.70015 21.331 2.51933 21.4096 2.33835C21.4325 2.28722 21.4553 2.23608 21.4789 2.1834C21.5002 2.13392 21.5216 2.08445 21.5435 2.03348C21.5635 1.98807 21.5834 1.94265 21.604 1.89586C21.6463 1.74607 21.6455 1.67445 21.5818 1.53269C21.4274 1.45665 21.2855 1.39764 21.124 1.34226C21.0815 1.32655 21.039 1.31084 20.9953 1.29465C20.7815 1.218 20.6426 1.18112 20.4099 1.18112ZM16.5574 1.57663C16.5161 1.59702 16.4749 1.61742 16.4324 1.63843C16.1828 1.7637 15.9514 1.90014 15.7224 2.06003C15.7635 2.10067 15.8046 2.1413 15.8469 2.18317C15.963 2.29903 16.0759 2.41727 16.1875 2.53748C16.2473 2.6005 16.3071 2.66352 16.3669 2.72653C16.3967 2.75924 16.4264 2.79194 16.4571 2.82564C16.5551 2.9314 16.5551 2.9314 16.7185 3.05612C16.9255 3.05457 17.0826 2.97205 17.2641 2.87668C17.305 2.85546 17.3459 2.83423 17.388 2.81236C17.4184 2.79612 17.4488 2.77989 17.4802 2.76315C17.4469 2.42339 17.3784 2.11998 17.2715 1.79636C17.2578 1.75376 17.244 1.71116 17.2299 1.66727C17.1965 1.56369 17.1626 1.46028 17.1286 1.3569C16.9205 1.3569 16.7402 1.48421 16.5574 1.57663ZM22.5193 2.11862C22.2876 2.55532 22.1041 3.00265 21.9333 3.46628C21.9609 3.49385 21.9885 3.52142 22.0169 3.54982C22.1843 3.71729 22.3518 3.88475 22.5193 4.05222C22.5659 4.00909 22.6126 3.96596 22.6607 3.92153C22.7234 3.86377 22.7861 3.80601 22.8489 3.74826C22.8794 3.71998 22.91 3.69169 22.9416 3.66255C23.1473 3.4733 23.3579 3.29215 23.574 3.11472C23.2766 2.74499 22.9396 2.42493 22.5779 2.11862C22.5585 2.11862 22.5392 2.11862 22.5193 2.11862ZM14.9607 2.70456C14.4384 3.19026 14.4384 3.19026 14.199 3.81784C14.3788 3.91947 14.5597 4.01898 14.7409 4.11813C14.7921 4.14706 14.8432 4.17599 14.8959 4.2058C14.9454 4.23261 14.9948 4.25942 15.0458 4.28705C15.0912 4.31221 15.1366 4.33737 15.1834 4.3633C15.3123 4.41776 15.3123 4.41776 15.439 4.36041C15.5793 4.26413 15.6651 4.15193 15.7663 4.0156C15.8023 3.96771 15.8382 3.91982 15.8753 3.87048C15.9022 3.83378 15.9291 3.79707 15.9568 3.75925C15.8774 3.5819 15.7884 3.45917 15.6508 3.32254C15.6144 3.28629 15.578 3.25003 15.5405 3.21268C15.5027 3.17552 15.4648 3.13836 15.4258 3.10007C15.3877 3.062 15.3495 3.02393 15.3103 2.98471C15.1575 2.80052 15.1575 2.80052 14.9607 2.70456ZM23.7021 4.24265C23.4899 4.44255 23.2772 4.63489 23.0466 4.81394C23.0833 5.02849 23.143 5.21717 23.2261 5.41818C23.2473 5.46992 23.2685 5.52166 23.2904 5.57497C23.3066 5.61387 23.3228 5.65276 23.3396 5.69284C23.5521 5.65698 23.7645 5.62008 23.9768 5.58298C24.0373 5.57278 24.0978 5.56259 24.1601 5.55208C24.2179 5.54188 24.2757 5.53169 24.3352 5.52118C24.3886 5.51198 24.442 5.50277 24.497 5.49329C24.6393 5.46745 24.6393 5.46745 24.7458 5.34128C24.6926 5.18362 24.6388 5.0262 24.5847 4.86887C24.5699 4.8248 24.5551 4.78072 24.5398 4.73531C24.44 4.44704 24.319 4.19546 24.1599 3.93503C23.96 3.93503 23.8407 4.11099 23.7021 4.24265ZM13.6716 4.63815C13.6599 4.67093 13.6482 4.70372 13.6362 4.73749C12.8973 6.80959 12.1551 8.88051 11.4106 10.9506C11.2083 11.5129 11.0062 12.0752 10.8042 12.6376C10.7753 12.7179 10.7465 12.7982 10.7176 12.8785C10.7034 12.9181 10.6891 12.9578 10.6745 12.9986C10.6602 13.0382 10.646 13.0778 10.6314 13.1185C10.6101 13.1778 10.6101 13.1778 10.5884 13.2382C10.0403 14.7637 9.4916 16.2891 8.94236 17.8142C8.71396 18.4484 8.48564 19.0827 8.25732 19.7169C8.07593 20.2208 8.07593 20.2208 8.00099 20.4289C7.96079 20.5406 7.92062 20.6523 7.88049 20.764C7.7702 21.071 7.65905 21.3776 7.54699 21.6839C7.52254 21.751 7.49809 21.8181 7.4729 21.8873C7.42551 22.0173 7.3779 22.1473 7.33004 22.2772C7.3088 22.3357 7.28756 22.3941 7.26568 22.4543C7.24673 22.506 7.22779 22.5577 7.20827 22.611C7.15914 22.7485 7.15914 22.7485 7.1677 22.9194C7.24633 22.929 7.24633 22.929 7.32655 22.9389C7.3974 22.9482 7.46824 22.9574 7.54124 22.967C7.64524 22.9803 7.64524 22.9803 7.75135 22.9938C7.93852 23.0228 8.11473 23.0717 8.29578 23.1272C8.37415 23.151 8.37415 23.151 8.4541 23.1754C8.49365 23.1876 8.5332 23.1998 8.57395 23.2124C9.36457 21.0537 9.36457 21.0537 10.134 18.8874C10.4221 18.0617 10.7162 17.2382 11.0129 16.4155C11.0351 16.3539 11.0573 16.2923 11.0802 16.2289C11.1714 15.9761 11.2626 15.7234 11.3537 15.4706C11.6085 14.7642 11.8619 14.0573 12.1152 13.3503C12.1618 13.2203 12.2084 13.0903 12.255 12.9603C12.3485 12.6994 12.4419 12.4385 12.5354 12.1776C12.6981 11.7234 12.8609 11.2693 13.0237 10.8152C13.1389 10.4941 13.254 10.173 13.369 9.8519C13.587 9.24331 13.8053 8.63484 14.0246 8.0267C14.1286 7.73823 14.2324 7.4497 14.3362 7.16116C14.386 7.02313 14.4357 6.88512 14.4856 6.74714C14.5546 6.5563 14.6233 6.36536 14.692 6.17441C14.7125 6.11786 14.733 6.06131 14.7541 6.00305C14.7822 5.92467 14.7822 5.92467 14.8109 5.84471C14.8272 5.79955 14.8435 5.7544 14.8603 5.70788C14.9047 5.5673 14.9343 5.42765 14.9607 5.28269C14.768 5.17486 14.5751 5.06759 14.3821 4.96042C14.3271 4.92968 14.2722 4.89894 14.2157 4.86727C14.1632 4.83819 14.1107 4.80911 14.0566 4.77915C14.0081 4.75214 13.9596 4.72514 13.9097 4.69732C13.7937 4.62957 13.7937 4.62957 13.6716 4.63815ZM24.5497 6.40146C24.4548 6.42129 24.4548 6.42129 24.358 6.44151C24.2914 6.45549 24.2248 6.46946 24.1562 6.48386C24.0894 6.49783 24.0226 6.5118 23.9538 6.5262C23.7881 6.56086 23.6224 6.5956 23.4568 6.63034C23.4568 7.01706 23.4568 7.40378 23.4568 7.80222C23.9402 7.80222 24.4236 7.80222 24.9216 7.80222C24.9216 7.31882 24.9216 6.83542 24.9216 6.33737C24.7971 6.33737 24.6707 6.37611 24.5497 6.40146ZM23.4568 8.73972C23.4568 9.14577 23.4568 9.55183 23.4568 9.97019C23.9402 9.97019 24.4236 9.97019 24.9216 9.97019C24.9216 9.56413 24.9216 9.15808 24.9216 8.73972C24.4382 8.73972 23.9548 8.73972 23.4568 8.73972ZM22.7536 10.9077C22.7536 11.3331 22.7536 11.7585 22.7536 12.1967C23.7011 12.1967 24.6486 12.1967 25.6247 12.1967C25.6247 11.7714 25.6247 11.346 25.6247 10.9077C24.6773 10.9077 23.7298 10.9077 22.7536 10.9077ZM16.6892 16.0362C15.3554 17.465 14.4088 19.545 14.4333 21.5132C14.4691 21.5134 14.5048 21.5136 14.5416 21.5139C14.7046 21.5158 14.8674 21.52 15.0303 21.5241C15.1146 21.5247 15.1146 21.5247 15.2007 21.5252C15.2552 21.5269 15.3098 21.5286 15.366 21.5303C15.416 21.5312 15.4661 21.5322 15.5176 21.5331C15.735 21.5906 15.8174 21.6895 15.9568 21.8647C15.9859 22.0444 15.9973 22.1918 15.9954 22.3713C15.996 22.4216 15.9966 22.472 15.9973 22.5238C15.9989 22.6897 15.9986 22.8554 15.9982 23.0213C15.999 23.1364 15.9999 23.2516 16.0009 23.3668C16.0032 23.6696 16.0038 23.9723 16.004 24.2751C16.0047 24.6386 16.0075 25.002 16.0099 25.3655C16.0134 25.9173 16.0141 26.4691 16.0154 27.021C17.3495 27.021 18.6837 27.021 20.0583 27.021C19.8597 26.821 19.8597 26.821 19.6548 26.6277C18.7299 25.7731 18.2349 24.5586 18.1668 23.3142C18.1268 22.0841 18.497 20.8549 19.3149 19.9201C19.4053 19.825 19.4969 19.731 19.5896 19.6382C19.6341 19.5929 19.6787 19.5477 19.7246 19.5011C20.6502 18.6134 21.885 18.2081 23.1556 18.2142C23.9273 18.234 24.6606 18.4479 25.3462 18.7977C25.4952 18.885 25.4952 18.885 25.6247 18.8764C25.6274 18.1451 25.6295 17.4137 25.6308 16.6823C25.6314 16.3427 25.6323 16.0031 25.6336 15.6635C25.6348 15.336 25.6355 15.0086 25.6359 14.6811C25.6361 14.5559 25.6365 14.4307 25.6371 14.3056C25.638 14.1307 25.6381 13.9559 25.638 13.7811C25.6387 13.7028 25.6387 13.7028 25.6393 13.623C25.6515 13.3504 25.6515 13.3504 25.5075 13.1342C25.3368 13.1225 25.1718 13.1179 25.001 13.1187C24.9499 13.1185 24.8987 13.1183 24.846 13.1182C24.6796 13.1179 24.5131 13.1187 24.3467 13.1196C24.2621 13.1199 24.2621 13.1199 24.1757 13.1202C21.2289 13.1326 18.7915 13.911 16.6892 16.0362ZM20.2 20.3076C19.7577 20.7785 19.4484 21.3126 19.238 21.9233C19.2243 21.962 19.2107 22.0007 19.1966 22.0405C18.9357 22.9113 19.0343 23.9551 19.4474 24.763C19.475 24.8121 19.5026 24.8611 19.531 24.9116C19.5592 24.9636 19.5873 25.0157 19.6164 25.0693C20.1636 26.0053 20.981 26.6001 22.0084 26.9219C23.0276 27.181 24.0702 27.029 24.9935 26.5339C26.0064 25.9176 26.6009 25.0376 26.9138 23.9155C27.1356 22.8526 26.9045 21.783 26.3279 20.8686C26.1335 20.614 25.912 20.3891 25.6833 20.1655C25.634 20.1134 25.634 20.1134 25.5838 20.0602C24.0829 18.5948 21.6195 18.9784 20.2 20.3076ZM14.3747 22.5092C14.3734 23.0802 14.3723 23.6512 14.3717 24.2221C14.3714 24.4872 14.371 24.7523 14.3703 25.0174C14.3697 25.2731 14.3693 25.5288 14.3692 25.7844C14.3691 25.8821 14.3689 25.9798 14.3685 26.0775C14.3681 26.2141 14.3681 26.3506 14.3681 26.4871C14.3679 26.5277 14.3677 26.5684 14.3674 26.6103C14.3654 26.8228 14.3654 26.8228 14.4333 27.021C14.6267 27.021 14.82 27.021 15.0193 27.021C15.0193 25.5321 15.0193 24.0432 15.0193 22.5092C14.8066 22.5092 14.5939 22.5092 14.3747 22.5092ZM6.18077 24.5049C6.08839 24.6508 6.08839 24.6508 5.99583 24.9702C6.92395 24.9702 7.85208 24.9702 8.80833 24.9702C8.66155 24.5299 8.45702 24.2195 8.03562 24.0034C7.33488 23.7376 6.65278 23.9354 6.18077 24.5049ZM1.24973 26.5522C1.12076 26.7311 1.07395 26.8003 1.07395 27.021C4.63177 27.021 8.18958 27.021 11.8552 27.021C11.8552 26.6923 11.8552 26.3635 11.8552 26.0249C11.7473 25.917 11.5728 25.9582 11.4283 25.9577C11.3894 25.9574 11.3505 25.9572 11.3104 25.957C11.179 25.9564 11.0476 25.9561 10.9162 25.9559C10.8224 25.9555 10.7286 25.9552 10.6347 25.9547C10.379 25.9537 10.1233 25.9531 9.86762 25.9526C9.70784 25.9523 9.54806 25.952 9.38827 25.9516C8.8883 25.9505 8.38833 25.9496 7.88836 25.9492C7.31138 25.9486 6.73442 25.947 6.15745 25.9447C5.71154 25.9429 5.26563 25.942 4.81971 25.9418C4.55341 25.9417 4.28712 25.9412 4.02082 25.9397C3.76996 25.9383 3.51912 25.9381 3.26826 25.9387C3.17645 25.9387 3.08464 25.9384 2.99284 25.9376C2.2829 25.9317 1.75409 26.0219 1.24973 26.5522Z" fill="black"/>
</svg>
